<?xml version="1.0" encoding="utf-8"?>
<!-- Generator: Adobe Illustrator 16.0.0, SVG Export Plug-In . SVG Version: 6.00 Build 0)  -->
<!DOCTYPE svg PUBLIC "-//W3C//DTD SVG 1.1//EN" "http://www.w3.org/Graphics/SVG/1.1/DTD/svg11.dtd">
<svg version="1.1" id="Layer_1" xmlns="http://www.w3.org/2000/svg" xmlns:xlink="http://www.w3.org/1999/xlink" x="0px" y="0px"
	 width="442.477px" height="487.227px" viewBox="0 0 442.477 487.227" enable-background="new 0 0 442.477 487.227"
	 xml:space="preserve">
<g id="Nen">
	<path id="_156558504" fill="none" d="M209.442,162.782c72.771,0,131.787,59.016,131.787,131.786
		c0,72.771-59.016,131.788-131.787,131.788S77.655,367.34,77.655,294.568C77.656,221.795,136.671,162.782,209.442,162.782z"/>
	<path id="_156558432" fill="#FFFFFF" d="M83.698,158.199L22.526,50.538l-10.073-6.484l-2.27-31.416l24.61,14.238l1.988,6.741
		l4.192,6.986c18.403-7.401,53.483-31.029,67.99-10.232c14.988,21.487,50.487-2.847,69.54-9.314
		c17.484-5.935,52.692-17.358,67.313,5.91c14.707,23.412,38.805,11.804,78.151,2.636c29.871-6.959,79.654,4.832,94.222,28.475
		c-9.496,4.979-23.607,10.744-31.279,16.303c-30.84,22.349,14.502,63.321,31.356,96.161
		c17.343,33.779,27.002,100.217-13.295,126.567c-1.176,7.474-0.459,41.957-17.006,48.007c-22.149,77.69-93.86,134.856-178.5,134.856
		c-102.201,0-185.557-83.354-185.557-185.559C23.91,240.668,46.973,192.139,83.698,158.199L83.698,158.199z"/>
	<g display="none">
		<path id="_156558360" display="inline" fill="#FFFFFF" d="M8.404,44.034C7.942,32.871,7.925,22.23,8.319,11.064
			c0.036-1.029,1.76-2.185,2.626-1.627l27.766,17.894l0.033,0.293l0.219,13.329l0.756,1.118
			c14.204-8.336,55.079-32.008,69.246-11.699c14.987,21.487,50.485-2.847,69.54-9.314c17.483-5.935,52.693-17.358,67.312,5.911
			c14.707,23.412,38.805,11.804,78.151,2.636c29.873-6.959,79.654,4.832,94.224,28.475c-9.498,4.98-23.609,10.745-31.281,16.303
			c-30.84,22.349,14.502,63.321,31.356,96.161c17.343,33.78,27.002,100.217-13.293,126.567c-1.932,19.82-4.295,33.865-9.948,46.238
			c-0.767,1.672-5.041,2.14-7.439,3.088c0,0-0.449,1.511-0.693,2.308c-23.317,75.84-94.106,131.231-177.423,131.231
			c-102.201,0-185.557-83.354-185.557-185.561c0-51.598,21.258-98.385,55.451-132.072L18.542,52.357L8.404,44.034L8.404,44.034z"/>
		<path id="_156558360_1_" display="inline" fill="#AAA9A9" d="M8.07,11.057l0.498,0.016v0.001l-0.036,1.044l-0.034,1.041
			l-0.031,1.04l-0.028,1.036L8.413,16.27l-0.024,1.032l-0.021,1.03l-0.019,1.029l-0.017,1.026l-0.014,1.026l-0.011,1.025
			l-0.009,1.023l-0.006,1.023l-0.004,1.022l-0.001,1.022l0.001,1.022l0.004,1.021l0.006,1.022l0.008,1.021l0.011,1.021l0.014,1.024
			l0.017,1.024l0.019,1.026l0.021,1.027l0.024,1.028l0.026,1.031l0.029,1.032l0.031,1.034l0.035,1.037l0.037,1.039l0.04,1.042
			l0.042,1.044l-0.498,0.019l-0.042-1.046l-0.039-1.042l-0.037-1.041l-0.034-1.037L7.97,38.841l-0.029-1.034l-0.026-1.031
			l-0.024-1.03L7.87,34.718l-0.019-1.026l-0.017-1.026L7.82,31.642l-0.011-1.024L7.8,29.594l-0.006-1.021L7.79,27.549l-0.001-1.022
			l0.001-1.022l0.003-1.023l0.006-1.023l0.009-1.025l0.012-1.026l0.014-1.026l0.016-1.028l0.019-1.029l0.021-1.032l0.023-1.034
			l0.026-1.035l0.028-1.038l0.031-1.04l0.034-1.043L8.07,11.057L8.07,11.057z M11.08,9.228l-0.27,0.42l0,0l-0.059-0.033
			l-0.063-0.027L10.62,9.567l-0.072-0.014l-0.077-0.008l-0.083-0.002l-0.085,0.004l-0.089,0.012l-0.092,0.018l-0.093,0.024
			L9.933,9.632L9.837,9.669L9.741,9.711L9.644,9.758L9.549,9.811L9.456,9.868L9.364,9.93l-0.09,0.065l-0.086,0.069l-0.083,0.072
			l-0.078,0.075l-0.074,0.077l-0.068,0.08l-0.063,0.081L8.766,10.53l-0.05,0.081l-0.044,0.082l-0.036,0.081l-0.029,0.078
			l-0.021,0.077l-0.014,0.075l-0.006,0.072L8.068,11.06l0.01-0.121l0.021-0.119l0.033-0.118l0.041-0.116l0.051-0.112l0.058-0.11
			l0.065-0.107l0.074-0.104l0.078-0.1l0.084-0.097l0.089-0.094l0.095-0.091l0.098-0.087l0.104-0.083l0.105-0.078l0.109-0.074
			l0.113-0.068l0.115-0.063l0.116-0.059l0.12-0.051l0.12-0.045l0.121-0.039l0.123-0.032l0.123-0.024l0.123-0.016l0.122-0.006
			L10.5,9.048l0.122,0.013l0.12,0.024l0.116,0.036l0.113,0.048L11.08,9.228L11.08,9.228L11.08,9.228z M38.958,27.305l-0.383,0.237
			L10.81,9.648l0.27-0.42l27.766,17.894L38.958,27.305z M38.845,27.122l0.1,0.064l0.013,0.119L38.845,27.122L38.845,27.122z
			 M38.992,27.621l-0.497,0.031l-0.033-0.293l0.496-0.054l0.033,0.292L38.992,27.621z M38.991,27.597v0.005v0.019V27.597z
			 M38.755,41.093l-0.042-0.136l-0.218-13.328l0.498-0.008l0.219,13.329L38.755,41.093z M38.755,41.093l-0.041-0.06l-0.001-0.076
			L38.755,41.093z M39.845,42.286l-0.333-0.075l-0.756-1.118l0.414-0.279l0.756,1.118L39.845,42.286z M39.845,42.286l-0.202,0.118
			l-0.131-0.193L39.845,42.286L39.845,42.286z M109.169,30.23l-0.408,0.285l0,0l-1.386-1.753l-1.53-1.509l-1.665-1.274l-1.789-1.054
			l-1.908-0.844l-2.016-0.643l-2.116-0.454l-2.206-0.274l-2.287-0.106l-2.359,0.053l-2.417,0.202l-2.469,0.339l-2.509,0.466
			l-2.541,0.583l-2.561,0.688l-2.571,0.782l-2.574,0.867l-2.563,0.94l-2.544,1.002l-2.517,1.054l-2.478,1.095l-2.429,1.124
			l-2.372,1.143l-2.304,1.151l-2.225,1.147l-2.138,1.135l-2.041,1.11l-1.933,1.074l-1.818,1.028l-1.689,0.971l-1.555,0.904
			l-1.407,0.824l-0.252-0.43l1.409-0.826l1.555-0.903l1.693-0.973l1.819-1.03l1.938-1.077l2.045-1.112l2.144-1.137l2.231-1.151
			l2.309-1.154l2.378-1.146l2.437-1.128l2.486-1.098l2.526-1.058l2.556-1.006l2.576-0.944l2.585-0.871l2.587-0.788l2.578-0.693
			l2.559-0.586l2.532-0.471l2.493-0.343l2.446-0.204l2.388-0.054l2.323,0.106l2.248,0.28l2.161,0.463l2.065,0.659l1.958,0.867
			l1.842,1.083l1.713,1.313l1.573,1.551L109.169,30.23L109.169,30.23L109.169,30.23z M109.169,30.23L109.169,30.23L109.169,30.23
			L109.169,30.23z M178.424,20.821l0.16,0.473l0,0l-1.826,0.654l-1.918,0.748l-2.002,0.829l-2.078,0.9l-2.148,0.958l-2.213,1.004
			l-2.27,1.04l-2.318,1.063l-2.361,1.076l-2.397,1.075l-2.427,1.063l-2.449,1.04l-2.467,1.004l-2.475,0.958l-2.477,0.9l-2.474,0.83
			l-2.461,0.749l-2.445,0.654l-2.42,0.549l-2.39,0.433l-2.353,0.303l-2.31,0.162l-2.258,0.009l-2.201-0.155l-2.138-0.333
			l-2.067-0.521l-1.988-0.723l-1.902-0.938l-1.808-1.162l-1.707-1.398l-1.597-1.646l-1.48-1.903l0.408-0.285l1.449,1.862
			l1.558,1.604l1.662,1.363l1.761,1.131l1.852,0.912l1.939,0.706l2.019,0.51l2.094,0.325l2.163,0.153l2.224-0.01l2.278-0.16
			l2.326-0.299l2.366-0.429l2.401-0.544l2.427-0.65l2.448-0.743l2.459-0.825l2.467-0.896l2.465-0.955l2.458-1.002l2.443-1.038
			l2.423-1.063l2.394-1.073l2.36-1.074l2.317-1.063l2.271-1.04l2.214-1.006l2.154-0.959l2.084-0.902l2.01-0.833l1.93-0.751
			L178.424,20.821L178.424,20.821L178.424,20.821z M246.025,26.836l-0.424,0.265l0,0l-1.418-2.064l-1.529-1.869l-1.633-1.681
			l-1.733-1.501l-1.826-1.33l-1.91-1.164l-1.987-1.007l-2.062-0.857l-2.127-0.714l-2.187-0.579l-2.233-0.45l-2.281-0.329
			l-2.317-0.215l-2.349-0.108l-2.373-0.007l-2.389,0.085l-2.396,0.171l-2.4,0.248l-2.395,0.319l-2.383,0.382l-2.364,0.438
			l-2.339,0.487l-2.303,0.528l-2.265,0.563l-2.217,0.589l-2.163,0.609l-2.102,0.622l-2.031,0.625l-1.957,0.623l-1.875,0.614
			l-1.786,0.595l-1.688,0.571l-0.16-0.473l1.69-0.571l1.788-0.597l1.878-0.614l1.961-0.625l2.039-0.627l2.106-0.622l2.168-0.611
			l2.225-0.591l2.271-0.564l2.314-0.532l2.348-0.489l2.375-0.44l2.395-0.384l2.408-0.321l2.416-0.25l2.414-0.17l2.406-0.085
			l2.393,0.008l2.371,0.108l2.341,0.216l2.308,0.333l2.267,0.456l2.215,0.586l2.155,0.726l2.097,0.871l2.022,1.024l1.945,1.187
			l1.856,1.353l1.766,1.529l1.666,1.712l1.556,1.902L246.025,26.836L246.025,26.836L246.025,26.836z M323.911,29.361l0.113,0.487
			l0,0l-3.644,0.864l-3.555,0.873l-3.467,0.873l-3.386,0.867l-3.297,0.854l-3.213,0.834l-3.133,0.808l-3.049,0.773l-2.972,0.733
			l-2.893,0.687l-2.813,0.632l-2.736,0.571l-2.662,0.503l-2.586,0.428l-2.514,0.347l-2.439,0.258l-2.371,0.162l-2.301,0.059
			l-2.232-0.05l-2.164-0.167l-2.098-0.291l-2.033-0.423l-1.969-0.56l-1.904-0.706l-1.84-0.858l-1.777-1.017l-1.715-1.182
			l-1.651-1.354l-1.593-1.533l-1.532-1.717l-1.474-1.909l-1.414-2.106l0.422-0.265l1.396,2.081l1.453,1.881l1.506,1.689l1.564,1.506
			l1.623,1.329l1.68,1.158l1.74,0.996l1.803,0.84l1.867,0.692l1.934,0.55l1.998,0.415l2.066,0.287l2.135,0.166l2.209,0.05
			l2.277-0.059l2.352-0.162l2.424-0.256l2.498-0.344l2.574-0.426l2.652-0.501l2.727-0.569l2.809-0.63l2.885-0.685l2.968-0.732
			l3.047-0.773l3.131-0.807l3.213-0.834l3.302-0.854l3.383-0.868l3.471-0.874l3.557-0.873L323.911,29.361L323.911,29.361
			L323.911,29.361z M418.303,58.299l-0.229-0.441l-0.099,0.352l-1.454-2.166l-1.652-2.097l-1.838-2.026l-2.017-1.956l-2.182-1.881
			l-2.338-1.808l-2.482-1.731l-2.621-1.654l-2.741-1.576l-2.863-1.495l-2.967-1.414l-3.064-1.332l-3.146-1.247l-3.226-1.161
			l-3.289-1.075l-3.344-0.986l-3.391-0.897l-3.425-0.807l-3.446-0.714l-3.463-0.621l-3.472-0.526l-3.461-0.431l-3.444-0.333
			l-3.421-0.235l-3.385-0.136l-3.338-0.035l-3.281,0.067l-3.215,0.171l-3.139,0.275l-3.051,0.38l-2.953,0.487l-2.849,0.596
			l-0.11-0.487l2.869-0.6l2.973-0.491l3.07-0.383l3.153-0.277l3.23-0.171l3.297-0.067l3.352,0.035l3.398,0.136l3.436,0.236
			l3.459,0.335l3.478,0.432l3.479,0.528l3.478,0.623l3.463,0.718l3.438,0.809l3.399,0.901l3.357,0.99l3.305,1.079l3.238,1.167
			l3.164,1.252l3.075,1.337l2.984,1.421l2.877,1.505l2.764,1.585l2.64,1.666l2.504,1.746l2.354,1.823l2.203,1.901l2.035,1.976
			l1.861,2.051l1.674,2.125l1.479,2.197L418.303,58.299z M418.401,57.948l0.141,0.228l-0.238,0.124L418.401,57.948z M387.055,74.584
			l-0.293-0.404l0,0l0.744-0.524l0.775-0.526l0.813-0.525l0.842-0.527l0.871-0.526l0.898-0.526l0.924-0.527l0.947-0.526l0.969-0.526
			l0.988-0.525l1.006-0.525l1.021-0.524l1.033-0.522l1.045-0.522l1.058-0.52l1.061-0.519l1.066-0.516l1.069-0.515l1.07-0.514
			l1.07-0.51l1.067-0.508l1.063-0.505l1.055-0.502l1.047-0.499l1.037-0.496l1.021-0.493l1.008-0.489l0.99-0.485l0.971-0.482
			l0.951-0.477l0.928-0.473l0.902-0.468l0.229,0.441l-0.903,0.47l-0.931,0.474l-0.953,0.479l-0.975,0.482l-0.992,0.487l-1.008,0.489
			l-1.025,0.493l-1.034,0.497l-1.048,0.5l-1.059,0.502l-1.063,0.505l-1.063,0.508l-1.07,0.51l-1.069,0.511l-1.068,0.514
			l-1.066,0.517l-1.061,0.517l-1.053,0.52l-1.043,0.52l-1.029,0.521l-1.021,0.522l-1.002,0.522l-0.983,0.523l-0.965,0.524
			l-0.943,0.524l-0.918,0.523l-0.896,0.524l-0.862,0.522l-0.836,0.521l-0.806,0.521l-0.77,0.52L387.055,74.584L387.055,74.584
			L387.055,74.584z M386.762,74.18L386.762,74.18L386.762,74.18L386.762,74.18z M418.489,170.428l-0.443,0.229l0,0l-1.656-3.094
			l-1.805-3.14l-1.936-3.176l-2.043-3.211l-2.136-3.24l-2.207-3.266l-2.258-3.283l-2.293-3.298l-2.307-3.306l-2.299-3.313
			l-2.277-3.31l-2.232-3.304l-2.17-3.295l-2.09-3.278l-1.988-3.259l-1.864-3.234l-1.73-3.205l-1.57-3.171l-1.393-3.131l-1.193-3.089
			l-0.979-3.041l-0.742-2.988l-0.488-2.932l-0.211-2.87l0.084-2.802l0.4-2.73l0.733-2.652l1.093-2.567l1.463-2.475l1.854-2.377
			l2.265-2.274l2.69-2.166l0.293,0.404l-2.651,2.132l-2.224,2.233l-1.815,2.328l-1.433,2.418l-1.063,2.506l-0.717,2.59l-0.394,2.671
			l-0.084,2.75l0.209,2.821l0.48,2.889l0.733,2.953l0.97,3.011l1.186,3.063l1.383,3.112l1.564,3.153l1.719,3.191l1.863,3.223
			l1.979,3.25l2.082,3.271l2.168,3.289l2.23,3.3l2.272,3.309l2.302,3.309l2.307,3.307l2.291,3.299l2.262,3.285l2.209,3.27
			l2.14,3.246l2.049,3.219l1.938,3.188l1.813,3.149L418.489,170.428L418.489,170.428L418.489,170.428z M418.045,170.655
			L418.045,170.655L418.045,170.655L418.045,170.655z M405.221,297.133l-0.496-0.047l0.111-0.186l3.617-2.574l3.332-2.793
			l3.057-3.002l2.789-3.195l2.527-3.379l2.274-3.545l2.031-3.701l1.793-3.842l1.564-3.971l1.342-4.088l1.129-4.188l0.92-4.277
			l0.726-4.354l0.528-4.416l0.349-4.465l0.17-4.5l0.002-4.524l-0.158-4.531l-0.314-4.528l-0.457-4.51l-0.594-4.478l-0.727-4.436
			l-0.849-4.375l-0.961-4.305l-1.067-4.221l-1.166-4.121l-1.26-4.011l-1.343-3.886l-1.42-3.748l-1.483-3.596l-1.548-3.432
			l-1.598-3.253l0.443-0.228l1.604,3.269l1.556,3.445l1.489,3.61l1.424,3.762l1.347,3.898l1.264,4.024l1.172,4.136l1.072,4.234
			l0.963,4.318l0.853,4.391l0.729,4.447l0.596,4.494l0.459,4.526l0.314,4.543l0.158,4.55l-0.002,4.54l-0.17,4.521l-0.351,4.486
			l-0.533,4.438l-0.727,4.375l-0.926,4.303l-1.136,4.215l-1.352,4.113l-1.576,4l-1.807,3.869l-2.047,3.729l-2.295,3.573
			l-2.552,3.406l-2.813,3.228l-3.084,3.028l-3.363,2.818l-3.647,2.598L405.221,297.133L405.221,297.133z M404.725,297.086
			l0.013-0.119l0.102-0.064L404.725,297.086z M395.25,343.452l-0.453-0.207l0,0l0.521-1.16l0.5-1.172l0.479-1.185l0.465-1.192
			l0.447-1.209l0.43-1.224l0.416-1.233l0.398-1.252l0.385-1.269l0.369-1.283l0.354-1.301l0.343-1.317l0.33-1.341l0.315-1.354
			l0.306-1.379l0.295-1.399l0.28-1.42l0.271-1.443l0.264-1.469l0.252-1.49l0.246-1.519l0.234-1.543l0.229-1.569l0.226-1.597
			l0.215-1.623l0.207-1.653l0.203-1.683l0.194-1.713l0.193-1.742l0.189-1.774l0.186-1.81l0.184-1.84l0.494,0.047l-0.182,1.843
			l-0.187,1.811l-0.188,1.777l-0.193,1.744l-0.194,1.715l-0.203,1.688l-0.211,1.654l-0.216,1.627l-0.223,1.6l-0.229,1.572
			l-0.236,1.547l-0.246,1.52l-0.252,1.496l-0.266,1.476l-0.271,1.446l-0.285,1.429l-0.293,1.403l-0.307,1.386l-0.318,1.36
			l-0.33,1.347l-0.344,1.323l-0.356,1.31l-0.371,1.291l-0.388,1.272l-0.399,1.258l-0.418,1.242l-0.435,1.23l-0.448,1.215
			l-0.47,1.203l-0.483,1.189l-0.504,1.18L395.25,343.452L395.25,343.452z M387.823,346.508l-0.479-0.143l0.146-0.162l0.235-0.088
			l0.244-0.088l0.254-0.084l0.263-0.082l0.268-0.08l0.273-0.08l0.274-0.076l0.281-0.078l0.283-0.076l0.285-0.076l0.284-0.074
			l0.285-0.077l0.283-0.076l0.283-0.078l0.277-0.08l0.272-0.081l0.271-0.085l0.264-0.084l0.256-0.09l0.244-0.09l0.238-0.095
			l0.227-0.098l0.215-0.1l0.201-0.105l0.189-0.104l0.172-0.109l0.157-0.112l0.14-0.115l0.123-0.119l0.104-0.121l0.086-0.125
			l0.068-0.127l0.453,0.207l-0.097,0.18l-0.116,0.168l-0.136,0.16l-0.151,0.148l-0.17,0.139l-0.185,0.133l-0.194,0.125l-0.207,0.117
			l-0.222,0.113l-0.229,0.104l-0.24,0.104l-0.248,0.1l-0.258,0.094l-0.264,0.092l-0.271,0.089l-0.273,0.086l-0.278,0.082
			l-0.283,0.082l-0.283,0.079l-0.289,0.076l-0.285,0.078l-0.284,0.076l-0.285,0.076l-0.281,0.076l-0.279,0.074l-0.272,0.076
			l-0.269,0.077l-0.262,0.078l-0.254,0.08l-0.244,0.082l-0.234,0.084l-0.227,0.084L387.823,346.508L387.823,346.508z
			 M387.344,346.366l0.035-0.117l0.113-0.045L387.344,346.366z M387.129,348.816l-0.477-0.146v0.002l0.022-0.075l0.023-0.082
			l0.024-0.084l0.025-0.086l0.027-0.091l0.024-0.092l0.029-0.093l0.027-0.096l0.026-0.096l0.029-0.096l0.029-0.098l0.026-0.097
			l0.029-0.094l0.027-0.097l0.026-0.092l0.027-0.092l0.025-0.088l0.024-0.086l0.023-0.082l0.022-0.078l0.021-0.074l0.021-0.07
			l0.021-0.063l0.018-0.062l0.019-0.057l0.016-0.049l0.014-0.041l0.011-0.037l0.01-0.027l0.006-0.021l0.004-0.012v-0.007l0.48,0.144
			l-0.002,0.002l-0.005,0.015l-0.006,0.021l-0.01,0.026l-0.01,0.035l-0.015,0.045l-0.016,0.047l-0.016,0.058l-0.019,0.062
			l-0.021,0.063l-0.021,0.072l-0.022,0.073l-0.023,0.078l-0.022,0.082l-0.025,0.084l-0.025,0.09l-0.026,0.09l-0.027,0.095
			l-0.027,0.094l-0.026,0.097l-0.029,0.096l-0.027,0.096l-0.028,0.096l-0.029,0.099l-0.027,0.094l-0.026,0.097l-0.029,0.092
			l-0.025,0.088l-0.026,0.088l-0.023,0.084l-0.024,0.082L387.129,348.816L387.129,348.816L387.129,348.816z M387.129,348.816
			L387.129,348.816l-0.033,0.109L387.129,348.816z M209.467,480.225v-0.5l0,0l7.764-0.157l7.684-0.48l7.596-0.789l7.505-1.096
			l7.405-1.396l7.302-1.686l7.188-1.971l7.07-2.252l6.944-2.523l6.813-2.791l6.681-3.051l6.533-3.306l6.385-3.553l6.23-3.793
			l6.063-4.026l5.896-4.259l5.721-4.477l5.539-4.695l5.35-4.899l5.156-5.105l4.955-5.303l4.748-5.49l4.533-5.676l4.313-5.854
			l4.088-6.021l3.854-6.189l3.615-6.346l3.364-6.496l3.117-6.643l2.857-6.781l2.592-6.914l2.322-7.039l0.477,0.146l-2.328,7.061
			l-2.6,6.93l-2.865,6.801l-3.123,6.66l-3.379,6.516l-3.623,6.361l-3.863,6.203l-4.098,6.039l-4.326,5.869l-4.545,5.689l-4.76,5.508
			l-4.969,5.313l-5.171,5.119l-5.362,4.916l-5.556,4.705l-5.735,4.49l-5.912,4.268l-6.082,4.039l-6.246,3.805l-6.4,3.562
			l-6.553,3.313l-6.695,3.06l-6.834,2.799l-6.965,2.531l-7.09,2.258l-7.207,1.979l-7.32,1.688l-7.426,1.398l-7.523,1.098
			l-7.616,0.793l-7.703,0.479L209.467,480.225L209.467,480.225L209.467,480.225z M23.661,294.417h0.5l0,0l0.241,9.515l0.718,9.389
			l1.183,9.256l1.634,9.109l2.075,8.953l2.504,8.78l2.921,8.603l3.325,8.41l3.719,8.205l4.101,7.985l4.471,7.76l4.829,7.521
			l5.174,7.268l5.51,7.006l5.832,6.729l6.143,6.44l6.442,6.144l6.729,5.832l7.004,5.51l7.268,5.176l7.52,4.828l7.759,4.471
			l7.988,4.103l8.204,3.721l8.411,3.324l8.602,2.922l8.781,2.504l8.953,2.074l9.109,1.635l9.255,1.183l9.39,0.719l9.512,0.24v0.5
			l-9.535-0.242l-9.415-0.722l-9.281-1.184l-9.135-1.641l-8.976-2.08l-8.809-2.513l-8.625-2.928l-8.431-3.336l-8.228-3.729
			l-8.01-4.111l-7.781-4.482l-7.54-4.842l-7.287-5.188l-7.023-5.523l-6.747-5.85l-6.459-6.158l-6.159-6.459l-5.847-6.748
			l-5.524-7.023l-5.189-7.286l-4.841-7.54l-4.482-7.78l-4.112-8.011l-3.729-8.227l-3.335-8.432l-2.929-8.625l-2.51-8.809
			l-2.081-8.978l-1.64-9.138l-1.185-9.278l-0.72-9.414L23.661,294.417L23.661,294.417L23.661,294.417z M79.142,162.463l0.438-0.239
			l-0.044,0.298l-3.164,3.191l-3.085,3.268l-3.007,3.34l-2.927,3.414l-2.845,3.482l-2.763,3.554l-2.677,3.62l-2.59,3.688
			l-2.503,3.75l-2.414,3.813l-2.322,3.875l-2.23,3.937l-2.136,3.992l-2.041,4.051l-1.944,4.105l-1.845,4.16l-1.746,4.213
			l-1.644,4.263l-1.54,4.313l-1.437,4.359l-1.33,4.406l-1.222,4.452l-1.113,4.496l-1.003,4.536l-0.89,4.576l-0.776,4.615
			l-0.661,4.651l-0.544,4.689l-0.426,4.721l-0.306,4.758l-0.185,4.785l-0.061,4.818h-0.5l0.063-4.83l0.185-4.799l0.307-4.77
			l0.427-4.736l0.546-4.701l0.663-4.666l0.778-4.627l0.893-4.592l1.004-4.549l1.117-4.506l1.226-4.464l1.333-4.42l1.44-4.371
			l1.545-4.325l1.648-4.274l1.749-4.224l1.851-4.171l1.948-4.117l2.046-4.061l2.142-4.006l2.236-3.945l2.33-3.887l2.419-3.824
			l2.509-3.76l2.598-3.695l2.685-3.631l2.769-3.563l2.853-3.492l2.935-3.423l3.015-3.351l3.095-3.274l3.171-3.2L79.142,162.463
			L79.142,162.463z M79.58,162.224l0.091,0.165l-0.135,0.133L79.58,162.224L79.58,162.224z M18.7,52.165l0.061,0.072L79.58,162.223
			l-0.438,0.24L18.323,52.478L18.7,52.165z M18.7,52.165l0.038,0.031l0.023,0.042L18.7,52.165z M8.155,44.045l0.407-0.202
			L18.7,52.166l-0.316,0.385L8.246,44.229L8.155,44.045z M8.246,44.228L8.16,44.157l-0.004-0.112L8.246,44.228z"/>
	</g>
	<circle fill="#005D35" cx="209.442" cy="294.569" r="123.857"/>
	<g id="_156543576">
		<path id="_156558216" fill="#FFFFFF" d="M184.114,165.224l157.063,125.674c0.033,1.22,0.056,2.441,0.056,3.67
			c0,0.515-0.017,1.025-0.021,1.539L179.01,166.321C180.7,165.92,182.401,165.558,184.114,165.224L184.114,165.224z"/>
		<g>
			<path id="_156558144" fill="#FFFFFF" d="M144.718,179.758l190.945,152.785c-0.416,1.387-0.85,2.768-1.312,4.135l-193.375-154.73
				C142.209,181.197,143.459,180.469,144.718,179.758L144.718,179.758z"/>
			<path id="_156543840" fill="#FFFFFF" d="M115.35,202.317L320.1,366.148c-0.735,1.138-1.491,2.261-2.264,3.371L112.55,205.26
				C113.468,204.264,114.402,203.284,115.35,202.317L115.35,202.317z"/>
			<path id="_156543768" fill="#FFFFFF" d="M93.877,231.195l202.719,162.208c-1.027,0.906-2.068,1.806-3.125,2.683L91.947,234.834
				C92.572,233.609,93.217,232.398,93.877,231.195L93.877,231.195z"/>
			<path id="_156543696" fill="#FFFFFF" d="M80.629,266.652L264.93,414.124c-1.375,0.639-2.758,1.264-4.156,1.854L79.737,271.122
				C80.007,269.622,80.31,268.135,80.629,266.652L80.629,266.652z"/>
		</g>
		<path id="_156543600" fill="#FFFFFF" d="M78.693,311.165l143.22,114.598c-1.967,0.188-3.945,0.332-5.938,0.433L79.575,317.05
			C79.24,315.102,78.942,313.141,78.693,311.165L78.693,311.165z"/>
	</g>
	<path fill="#005D35" stroke="#FFFFFF" stroke-width="0.0129" d="M209.469,114.22c99.248,0,180.195,80.947,180.195,180.197
		c0,16.476-2.244,32.438-6.418,47.621c-2.076,0.461-4.146,0.896-6.184,1.42c4.573-15.569,7.04-32.024,7.04-49.041
		c0-96.188-78.448-174.638-174.637-174.638c-46.963,0-89.689,18.707-121.129,49.043l-2.794-5.022
		C117.882,133.098,161.54,114.22,209.469,114.22L209.469,114.22z M381.803,347.018c-22.598,73.728-91.373,127.597-172.333,127.597
		c-99.25,0-180.196-80.947-180.196-180.195c0-49.723,20.318-94.849,53.073-127.508l2.828,5.047
		c-31.099,31.559-50.341,74.832-50.341,122.461c0,96.187,78.448,174.637,174.636,174.637c77.322,0,143.169-50.7,166.029-120.557
		L381.803,347.018L381.803,347.018z"/>
	<g>
		<path fill="#005D35" d="M209.469,161.713c73.088,0,132.701,59.612,132.701,132.703c0,73.09-59.611,132.701-132.701,132.701
			c-73.091,0-132.702-59.611-132.702-132.701c0-31.658,11.188-60.783,29.807-83.634l0.367-0.364l2.798,5l-0.328,0.383
			c-17.075,21.673-27.282,48.99-27.282,78.615c0,70.137,57.203,127.338,127.34,127.338s127.338-57.201,127.338-127.338
			c0-70.139-57.201-127.34-127.338-127.34c-33.912,0-64.798,13.373-87.658,35.114l-7.054-0.56
			C138.869,177.025,172.435,161.715,209.469,161.713L209.469,161.713z"/>
		<path fill="#FFFFFF" d="M342.635,294.417h-0.93l0,0l-0.172-6.789l-0.512-6.701l-0.847-6.604l-1.166-6.5l-1.479-6.39l-1.787-6.267
			l-2.084-6.14l-2.373-6.001l-2.654-5.854l-2.926-5.701l-3.191-5.536l-3.444-5.367l-3.691-5.187l-3.934-4.998l-4.162-4.803
			l-4.383-4.597l-4.598-4.384l-4.804-4.162l-4.998-3.932l-5.187-3.691l-5.366-3.447l-5.537-3.191l-5.701-2.926l-5.854-2.654
			l-6.002-2.373l-6.139-2.084l-6.266-1.787l-6.391-1.48l-6.5-1.164l-6.604-0.846l-6.701-0.512l-6.789-0.172v-0.93l6.832,0.174
			l6.748,0.517l6.652,0.848l6.547,1.177l6.433,1.49l6.313,1.799l6.182,2.098l6.041,2.392l5.897,2.672l5.738,2.948l5.578,3.212
			l5.402,3.47l5.223,3.719l5.035,3.959l4.834,4.19l4.629,4.414l4.414,4.629l4.191,4.835l3.957,5.034l3.721,5.224l3.469,5.402
			l3.213,5.577l2.947,5.741l2.672,5.896l2.394,6.042l2.098,6.184l1.799,6.313l1.49,6.434l1.178,6.547l0.849,6.652l0.518,6.746
			L342.635,294.417L342.635,294.417L342.635,294.417z M209.469,427.583v-0.93l0,0l6.789-0.172l6.701-0.513l6.604-0.846l6.5-1.164
			l6.39-1.48l6.269-1.786l6.139-2.084l6.002-2.373l5.854-2.654l5.701-2.926l5.537-3.189l5.365-3.446l5.188-3.691l4.998-3.934
			l4.803-4.16l4.598-4.385l4.384-4.599l4.162-4.803l3.934-4.996l3.691-5.188l3.444-5.367l3.191-5.537l2.924-5.698l2.654-5.854
			l2.373-6.002l2.084-6.14l1.789-6.267l1.479-6.391l1.164-6.5l0.849-6.604l0.512-6.699l0.172-6.789h0.93l-0.176,6.832l-0.516,6.748
			l-0.851,6.65l-1.176,6.549l-1.492,6.434l-1.799,6.313l-2.098,6.183l-2.394,6.043l-2.674,5.896l-2.945,5.74l-3.213,5.576
			l-3.469,5.404l-3.721,5.223l-3.957,5.033l-4.191,4.836l-4.414,4.629l-4.629,4.412l-4.836,4.191l-5.032,3.956l-5.224,3.722
			l-5.403,3.471l-5.574,3.211l-5.74,2.947l-5.898,2.674l-6.041,2.391l-6.182,2.101l-6.314,1.799l-6.432,1.49l-6.549,1.176
			l-6.65,0.85l-6.748,0.517L209.469,427.583L209.469,427.583L209.469,427.583z M76.302,294.417h0.93l0,0l0.171,6.789l0.512,6.701
			l0.845,6.604l1.165,6.5l1.48,6.39l1.788,6.268l2.084,6.137l2.373,6.004l2.655,5.854l2.926,5.7l3.19,5.535l3.447,5.367l3.691,5.188
			l3.933,4.998l4.162,4.803l4.384,4.597l4.597,4.385l4.802,4.162l4.998,3.934l5.187,3.688l5.367,3.447l5.537,3.191l5.7,2.926
			l5.854,2.654l6.002,2.371l6.138,2.086l6.267,1.784l6.389,1.48l6.5,1.166l6.604,0.844l6.701,0.515l6.79,0.172v0.93l-6.833-0.176
			l-6.747-0.517l-6.652-0.85l-6.547-1.176l-6.434-1.49l-6.313-1.799l-6.182-2.101l-6.042-2.391l-5.897-2.674l-5.74-2.947
			l-5.578-3.211l-5.403-3.471l-5.223-3.719l-5.034-3.959l-4.835-4.191l-4.629-4.412l-4.413-4.629l-4.191-4.836l-3.958-5.033
			l-3.721-5.226l-3.469-5.401l-3.212-5.576l-2.948-5.741l-2.672-5.896l-2.391-6.043l-2.099-6.183l-1.801-6.313l-1.491-6.434
			l-1.176-6.549l-0.848-6.65l-0.516-6.746L76.302,294.417L76.302,294.417L76.302,294.417z M106.246,210.454l0.654,0.657l0.033-0.036
			l-1.718,2.153l-1.674,2.188l-1.627,2.226l-1.583,2.257l-1.537,2.294l-1.492,2.325l-1.443,2.359l-1.394,2.39l-1.345,2.423
			l-1.297,2.451l-1.247,2.48l-1.194,2.512l-1.144,2.539l-1.091,2.566l-1.038,2.594l-0.985,2.621l-0.93,2.646l-0.875,2.672
			l-0.82,2.692l-0.762,2.72l-0.707,2.743l-0.648,2.763l-0.588,2.787l-0.531,2.807l-0.472,2.828l-0.41,2.846l-0.349,2.867
			l-0.286,2.885l-0.225,2.9l-0.162,2.92l-0.098,2.934l-0.031,2.951H76.3l0.034-2.969l0.098-2.957l0.162-2.938l0.225-2.924
			l0.29-2.903l0.352-2.886l0.414-2.869l0.472-2.846l0.534-2.828l0.595-2.805l0.652-2.785l0.71-2.763l0.77-2.737l0.824-2.716
			l0.882-2.69l0.937-2.664l0.992-2.639l1.045-2.613l1.099-2.586l1.151-2.557l1.205-2.529l1.254-2.5l1.305-2.47l1.356-2.438
			l1.405-2.407l1.454-2.374l1.499-2.344l1.548-2.307l1.595-2.277l1.642-2.238l1.685-2.204l1.729-2.167L106.246,210.454
			L106.246,210.454z M106.214,210.491l0.016-0.02l0.016-0.018L106.214,210.491z M107.345,210.193l-0.078,0.554l-0.367,0.364
			l-0.654-0.657l0.367-0.365L107.345,210.193z M106.613,210.088l0.433-0.431l0.299,0.534L106.613,210.088L106.613,210.088z
			 M110.09,215.719l-0.757-0.075l-2.798-5.001l0.81-0.45l2.798,5.001L110.09,215.719z M110.143,215.194l0.157,0.281l-0.21,0.244
			L110.143,215.194z M109.045,215.514l0.013-0.014l0.328-0.383l0.705,0.604l-0.328,0.382L109.045,215.514z M109.045,215.514
			l0.013-0.014l-0.017,0.02L109.045,215.514z M82.594,294.417h-0.93l0,0l0.031-2.778l0.089-2.769l0.147-2.75l0.206-2.736
			l0.265-2.721l0.321-2.703l0.376-2.688l0.433-2.668l0.488-2.649l0.543-2.631l0.598-2.609l0.649-2.592l0.702-2.57l0.755-2.549
			l0.805-2.524l0.857-2.504l0.907-2.48l0.957-2.455l1.006-2.434l1.053-2.406l1.101-2.379l1.15-2.354l1.194-2.328l1.241-2.299
			l1.287-2.271l1.332-2.241l1.374-2.214l1.419-2.183l1.461-2.15l1.503-2.122l1.545-2.088l1.586-2.056l0.73,0.574l-1.575,2.041
			l-1.534,2.072l-1.493,2.104l-1.451,2.138l-1.408,2.167l-1.366,2.195l-1.321,2.228l-1.276,2.253l-1.233,2.284l-1.187,2.31
			l-1.139,2.336l-1.094,2.365l-1.046,2.39l-0.998,2.413l-0.949,2.438l-0.9,2.462l-0.85,2.485l-0.802,2.508l-0.748,2.529
			l-0.698,2.551l-0.645,2.572l-0.591,2.592l-0.539,2.612l-0.484,2.63l-0.429,2.648l-0.376,2.667l-0.318,2.685l-0.261,2.698
			l-0.206,2.718l-0.147,2.731l-0.089,2.746L82.594,294.417L82.594,294.417L82.594,294.417z M209.469,421.292v0.93l0,0l-6.559-0.168
			l-6.476-0.496l-6.384-0.813l-6.284-1.129l-6.175-1.433l-6.059-1.727l-5.933-2.016l-5.798-2.295l-5.66-2.563l-5.51-2.83
			l-5.353-3.082l-5.186-3.33l-5.013-3.569l-4.832-3.799l-4.64-4.021l-4.443-4.234l-4.236-4.443l-4.022-4.641l-3.799-4.83
			l-3.57-5.014l-3.329-5.186l-3.083-5.354l-2.829-5.508l-2.565-5.66l-2.294-5.799l-2.014-5.935L85.7,326.29l-1.431-6.174
			l-1.129-6.283l-0.814-6.383l-0.495-6.478l-0.168-6.559h0.93l0.165,6.514l0.491,6.43l0.811,6.339l1.118,6.233l1.42,6.131
			l1.715,6.013l2,5.891l2.276,5.759l2.546,5.616l2.808,5.47l3.062,5.313l3.307,5.148l3.542,4.979l3.773,4.795l3.993,4.605
			l4.207,4.41l4.41,4.207l4.607,3.991l4.795,3.773l4.976,3.543l5.149,3.307l5.313,3.062l5.469,2.809l5.617,2.547l5.758,2.277
			l5.89,1.998l6.012,1.717l6.13,1.42l6.236,1.117l6.336,0.811l6.43,0.49L209.469,421.292L209.469,421.292L209.469,421.292z
			 M336.342,294.417h0.933l0,0l-0.168,6.558l-0.496,6.479l-0.814,6.383l-1.129,6.283l-1.43,6.174l-1.728,6.059l-2.016,5.937
			l-2.295,5.797l-2.564,5.66l-2.828,5.51l-3.084,5.353l-3.328,5.188l-3.569,5.012l-3.799,4.832l-4.021,4.641l-4.235,4.443
			l-4.441,4.234l-4.641,4.021l-4.832,3.801l-5.013,3.567l-5.186,3.33l-5.354,3.082l-5.51,2.83l-5.66,2.564l-5.797,2.295
			l-5.934,2.014l-6.062,1.727l-6.174,1.433l-6.283,1.129l-6.383,0.813l-6.477,0.496l-6.559,0.168v-0.93l6.515-0.166l6.429-0.49
			l6.336-0.811l6.235-1.117l6.131-1.422l6.013-1.715l5.89-2l5.76-2.275l5.615-2.547l5.471-2.807l5.313-3.063l5.15-3.309l4.975-3.541
			l4.795-3.773l4.607-3.991l4.412-4.207l4.205-4.41l3.991-4.605l3.773-4.797l3.541-4.977l3.307-5.148l3.063-5.313l2.809-5.472
			l2.545-5.614l2.277-5.759l2-5.891l1.715-6.015l1.42-6.129l1.117-6.235l0.813-6.337l0.49-6.43L336.342,294.417L336.342,294.417
			L336.342,294.417z M209.469,167.542v-0.931l0,0l6.558,0.168l6.478,0.496l6.384,0.813l6.282,1.129l6.175,1.431l6.061,1.726
			l5.934,2.014l5.797,2.296l5.66,2.563l5.51,2.83l5.354,3.082l5.187,3.329l5.014,3.57l4.83,3.799l4.641,4.022l4.441,4.235
			l4.235,4.443l4.021,4.64l3.799,4.832l3.57,5.014l3.327,5.186l3.084,5.354l2.828,5.508l2.564,5.66l2.295,5.799l2.014,5.933
			l1.729,6.061l1.43,6.174L335.8,275l0.814,6.385l0.496,6.477l0.168,6.558h-0.933l-0.164-6.515l-0.489-6.43l-0.813-6.336
			l-1.117-6.236l-1.42-6.129l-1.715-6.014l-2-5.889l-2.277-5.76l-2.545-5.615l-2.809-5.47l-3.063-5.313l-3.307-5.148l-3.541-4.977
			l-3.772-4.795l-3.992-4.607l-4.205-4.411l-4.412-4.207l-4.607-3.993l-4.795-3.773l-4.977-3.541l-5.148-3.307l-5.313-3.062
			l-5.471-2.808l-5.615-2.547l-5.76-2.277l-5.89-2l-6.012-1.715l-6.132-1.42l-6.235-1.117l-6.336-0.811l-6.429-0.492
			L209.469,167.542L209.469,167.542L209.469,167.542z M121.775,202.654l0.072-0.926l-0.355,0.127l2.173-2.021l2.222-1.972
			l2.265-1.92l2.311-1.866l2.354-1.814l2.396-1.762l2.438-1.707l2.479-1.649l2.519-1.595l2.559-1.535l2.595-1.479l2.634-1.42
			l2.668-1.359l2.704-1.297l2.739-1.234l2.773-1.172l2.803-1.11l2.838-1.043l2.867-0.978l2.896-0.912l2.926-0.842l2.954-0.776
			l2.979-0.705l3.006-0.638l3.031-0.563l3.056-0.492l3.079-0.418l3.102-0.345l3.124-0.271l3.144-0.193l3.162-0.116l3.182-0.041
			v0.931l-3.16,0.037l-3.141,0.116l-3.121,0.192l-3.1,0.268l-3.078,0.344l-3.058,0.416l-3.034,0.487l-3.009,0.56l-2.983,0.629
			l-2.959,0.701l-2.932,0.77l-2.902,0.838l-2.875,0.904l-2.847,0.971l-2.815,1.037l-2.785,1.1l-2.75,1.164l-2.719,1.227
			l-2.686,1.289l-2.65,1.349l-2.613,1.407l-2.576,1.468l-2.541,1.524l-2.501,1.584l-2.461,1.639l-2.42,1.693l-2.381,1.748
			l-2.336,1.801l-2.293,1.855l-2.25,1.906l-2.203,1.957l-2.16,2.006L121.775,202.654L121.775,202.654z M122.13,202.527l-0.151,0.144
			l-0.205-0.017L122.13,202.527z M114.427,201.305l0.367-0.139l7.054,0.562l-0.072,0.926l-7.054-0.56L114.427,201.305
			L114.427,201.305z M114.721,202.094l-0.989-0.08l0.695-0.709L114.721,202.094L114.721,202.094z M209.469,161.249v0.93l0,0
			l-3.451,0.043l-3.428,0.134l-3.405,0.221l-3.381,0.306l-3.359,0.391l-3.331,0.475l-3.306,0.559l-3.274,0.64l-3.25,0.722
			l-3.219,0.799l-3.186,0.877l-3.155,0.957l-3.121,1.031l-3.087,1.105l-3.051,1.182l-3.014,1.254l-2.978,1.325l-2.94,1.396
			l-2.896,1.468l-2.858,1.535l-2.814,1.6l-2.773,1.669l-2.728,1.734l-2.681,1.796l-2.636,1.862l-2.588,1.922l-2.539,1.982
			l-2.492,2.043l-2.438,2.104l-2.386,2.16l-2.335,2.216l-2.281,2.272l-0.661-0.65l2.295-2.287l2.349-2.23l2.404-2.176l2.457-2.115
			l2.506-2.059l2.557-1.998l2.606-1.938l2.654-1.873l2.703-1.811l2.746-1.744l2.791-1.681l2.835-1.614l2.875-1.546l2.92-1.475
			l2.957-1.406l3-1.336l3.035-1.263l3.073-1.188l3.108-1.115l3.143-1.039l3.178-0.961l3.211-0.885l3.239-0.806l3.271-0.726
			l3.302-0.644l3.328-0.562l3.356-0.479l3.379-0.396l3.407-0.309l3.429-0.221l3.453-0.133L209.469,161.249L209.469,161.249
			L209.469,161.249z"/>
	</g>
</g>
<g id="Co">
	<path fill="#DA251D" d="M35.452,43.318c0.412,0.743,1.256,2.428,2.313,3.92c10.877-5.519,54.656-33.374,69.574-11.988
		c14.99,21.489,51.568-2.844,70.623-9.314c17.486-5.937,50.524-17.903,65.146,5.369c14.709,23.413,40.971,12.348,80.319,3.178
		c29.875-6.961,70.439,2.664,87.717,21.97c-9.495,4.979-18.213,9.081-25.858,14.135c-36.928,24.41,11.248,68.741,28.104,101.581
		c17.345,33.782,25.55,85.654-6.684,118.961c-22.605-29.651-49.867-47.115-104.065-28.567c-29.742,9.465-43.486,6.174-50-11.605
		c-5.65-15.426-26.32-19.736-50.298-9.314c-15.479,6.727-23.364,11.813-43.625,23.014l82.707,149.592
		c-4.94,1.314-10.004,2.334-15.168,3.037l-1.067-2.063C157.79,293.702,94.052,179.025,21.535,48.754l-8.409-7.317l0.015-24.438
		L34.376,29.5L35.452,43.318L35.452,43.318z"/>
	<polygon fill="#FFF500" points="211.581,74.9 245.844,126.346 302.383,126.598 267.182,158.645 300.997,210.247 244.979,178.607 
		209.338,210.247 209.917,158.645 154.077,126.598 210.454,126.346 	"/>
</g>
<g id="Tay">
	<path fill="#FFFFFF" d="M404.829,288.743c-0.777,1.182-0.883,5.911-1.547,6.873c-9.508-18.3-20.42-30.392-49.008-37.068
		c-22.925-2.896-42.988,5.056-45.334,6.558c-0.402,0.007-9.232,1.901-11.9,2.707c-19.903,6.018-37.795,1.975-43.75-7.332
		c-5.151-8.051-3.354-18.046-22.656-19.921c-23.237-2.257-50.055,17.514-66.254,26.657l80.947,145.92
		c-1.293,0.392-2.595,0.761-3.902,1.109l-82.707-149.593c20.262-11.198,28.146-16.284,43.625-23.012
		c23.979-10.421,44.646-6.11,50.298,9.313c6.514,17.777,25.262,19.084,54.981,9.563C352.987,245.98,383.555,254.334,404.829,288.743
		L404.829,288.743z"/>
	<polygon fill="#FFFFFF" points="205.643,341.415 212.988,354.875 209.499,356.418 203.388,345.377 	"/>
	<polygon fill="#FFFFFF" points="291.073,343.809 238.727,349.12 227.279,350.529 211.709,360.536 205.25,348.948 201.183,353.497 
		193.393,358.029 196.435,363.395 183.659,363.895 172.831,360.301 171.809,352.027 162.853,347.689 158.881,341.831 
		158.155,336.693 151.616,335.732 149.741,330.48 153.538,321.313 148.573,317.059 147.124,310.756 149.663,306.438 154.79,303.695 
		156.804,302.592 168.667,302.588 172.803,287.766 177.399,285.286 196.043,279.559 201.243,280.344 228.398,296.816 
		231.719,299.868 278.352,288.592 312.008,276.454 337.522,266.521 377.942,315.443 370.407,333.549 357.86,336.741 	"/>
	<path fill="none" d="M202.523,361.807c-6.933,2.576-19.065,3.402-25.237,0.443"/>
	<path fill="#DA251D" d="M160.521,304.641l-0.485-0.008l-0.008-0.002l0,0c-2.016-0.203-6.906,2.566-8.354,4.072
		c-0.661,0.688-0.992,1.744-1.049,2.896c-0.174,3.526,1.696,5.096,3.982,7.289c2.352-0.289,4.607-0.269,6.863-0.246
		c1.373,0.016,2.744,0.026,4.104-0.033c-0.027-0.313-0.053-0.617-0.076-0.918v-0.006l0.033-10.162
		C165.42,302.991,164.973,304.193,160.521,304.641L160.521,304.641z M170.183,304.723l5.207-0.356l1.571,0.479l2.524,1.913
		l0.966,0.732l-0.039,1.209l-0.203,6.366l-2.297-1.366l-0.674-5.711l-2.309-1.462l-4.732,0.326c0.012,0.554,0.027,1.103,0.047,1.646
		c0.021,0.525,0.051,1.17,0.098,1.924l0.088,8.012c0.318,0.267,0.996,0.67,1.554,1.002l0.048,0.029
		c0.719,0.43,1.514,0.783,2.295,0.92c0.178,0.031,0.314,0.051,0.399,0.057c0.114,0.009,0.239,0.011,0.374,0.005h0.003l0.088-0.005
		c2.454-0.116,4.257-0.202,6-1.516c0.886-0.666,2.5-2.996,3.825-5.293l2.189-5.998c0.09-0.754,0.244-1.539,0.446-2.447l-0.345-7.348
		l2.83-0.281l0,0l-0.008,0.002c0.529,0.938,1.306,2.3,1.449,2.498c3.09,1.138,6.955,1.045,9.355,1.459
		c-0.377,0.925-1.089,2.236-2.928,3.086c-2.553-0.182-3.873,0.214-5.084-0.422c1.164,4.369,2.832,7.351,4.594,10.765
		c2.037,3.948,5.078,6.987,9.768,10.739l6.977,4.273l-0.598,2.264l-6.218-1.647c-0.223,1.004-0.646,1.996-0.937,2.912
		c-0.236,0.75-0.596,1.446-1.086,2.065c-1.28,1.785-5.395,6.631-7.918,8.74c-0.328,0.273-0.619,0.518-0.771,0.645l0.002,0.004v0.003
		l-0.028,0.018l-0.029,0.023l-0.002-0.003l-0.502,0.324c-6.871,3.293-11.697,5.199-19.041,7.365
		c-0.315,0.137-0.608,0.295-0.879,0.471c-0.283,0.185-0.506,0.359-0.676,0.525c-0.729,0.717-0.945,1.25-0.888,1.391
		c0.771,1.914,0.942,3.211,1.738,3.961c0.622,0.593,1.409,1.392,2.495,1.418c8.976-1.325,15.211-5.014,23.822-9.522
		c0,0,4.055-4.354,6.028-7.703c0.916,2.412,0.735,2.955,1.226,4.281c-1.776,3.067-5.129,7.198-6.789,7.821
		c-1.283,1.134-1.057,0.964-2.037,1.595c-3.332,2.142-10.389,4.92-13.582,6.172c2.484-0.053,5.834-0.574,8.145-0.942
		c1.43-0.229,4.365-1.927,5.975-2.521l0.009-0.01l0.002-0.002l0.92,2.529l0.69,1.864l-0.01,0.004l0.002,0.004l-0.002,0.003v-0.007
		c-1.068,0.396-2.219,0.748-3.42,1.05c-1.229,0.309-2.512,0.569-3.818,0.778c-6.647,1.063-12.867,0.888-17.791-1.269
		c-2.063-0.137-3.672-0.803-5.076-2.131c-2.396-2.266-4.43-6.088-3.204-9.393c-0.644-0.107-2.839-0.25-3.423-0.426
		c-2.67-0.809-4.711-2.279-6.139-4.146c-1.906-2.488-4.725-6.754-2.387-9.281c-2.477-0.143-4.369,0.023-5.886-1.436
		c-2.904-2.791-5.894-8.068-5.298-12.332c0.259-1.857,1.19-2.652,3.229-4.361l-0.943-0.904c-2.308-2.215-3.367-5.663-3.213-8.805
		c0.643-3.164,0.848-4.332,2.348-5.895c2.85-2.244,8.555-5.711,11.93-5.506l5.471-0.551c0.066-0.916,0.151-1.81,0.256-2.666v-0.006
		c0.504-4.086,1.938-8.646,5.6-10.947l0.002-0.002c0.8-0.504,1.813-1.045,2.973-1.596c6.86-3.263,20.248-9.142,27.465-7.353
		c11.787,2.922,21.652,11.66,30.994,18.989c0.484,0.382,0.867,0.818,1.17,1.3l57.611-17.791c6.721,0.104,11.408,0.971,15.282,2.176
		l-71.807,19.808c0.094,1.834-0.065,3.721,0.127,5.244c0.127,0.985,0.258,2.021,0.5,3.063l-3.097,0.721
		c-0.291-1.26-0.44-2.43-0.581-3.543c-0.285-2.246-1.996-5.963-3.687-7.289c-7.881-6.184-17.32-15.115-27.271-17.582
		c-6.367-1.578-18.588,3.596-24.695,6.5c-1.037,0.492-1.892,0.943-2.5,1.326h-0.002c-1.496,0.941-2.404,2.869-2.939,4.904
		c-0.116,0.441-0.213,0.883-0.294,1.32c-0.075,0.401-0.142,0.846-0.199,1.313v0.006c-0.217,1.766-0.347,3.688-0.401,5.656
		l0.099-0.01c-0.044,0.379-0.085,0.766-0.122,1.156C170.186,304.307,170.184,304.514,170.183,304.723L170.183,304.723z
		 M302.204,276.109l27.699-8.555l5.225,6.207l-20.787,5.734C309.995,277.627,305.727,276.381,302.204,276.109z M168.39,322.717
		c-4.61,0.654-9.246,0.219-13.798,0.895c-2.077,0.173-2.907,2.406-3.061,3.498c0.914,4.607,2.518,8.134,7.896,6.931
		c4.875-0.474,21.301-2.271,25.938-4.515c1.646-0.608,6.627-5.317,7.991-7.317c1.179-1.377-4.146-6.731-4.214-6.894
		c-0.188,0.047-0.377,0.099-0.566,0.148c-1.904,4.521-2.177,5.889-6.555,7.668l0.01,0.004
		C176.411,325.42,173.958,326.467,168.39,322.717L168.39,322.717z M214.249,357.116c3.303-1.16,12.108-5.011,14.056-7.479
		l0.184-0.201c1.408-1.414,2.863-1.483,5.115-1.596c0.76-0.037,1.647-0.08,2.771-0.217h0.002
		c32.717-3.484,67.043-7.316,99.059-11.482c-3.469,2.656-4.021,5.062-12.827,8.842l0.004,0.004
		c-8.392,0.777-18.264,1.433-34.336,3.046c-22.521,2.26-39.465,2.803-51.338,4.252h-0.002c-1.158,0.141-2.207,0.19-3.103,0.233
		c-1.049,0.054-1.763,0.086-1.979,0.185c-2.658,3.338-11.282,6.729-15.499,8.209L214.249,357.116L214.249,357.116z M201.982,327.396
		c-1.032-0.885-1.981-2.807-2.854-3.672c-1.969,1.166-6.482,6.576-8.858,7.974c-0.979,0.727-1.958,1.641-3.211,1.979
		c-9.651,2.601-16.925,3.892-24.24,4.728c-2.452,1.934-0.58,3.848,1.349,7.219c1.931,2.52,5.234,2.607,8.227,2.414
		c6.063-1.693,18.627-4.465,23.438-8.484c2.396-2.002,6.008-6.037,6.834-7.24l0.127-0.166c0.137-0.166,0.239-0.364,0.312-0.594
		c0.222-0.699,0.155-1.59-0.142-2.479C202.808,328.614,202.465,328.021,201.982,327.396L201.982,327.396z"/>
	<path fill="none" d="M169.306,301.4l-9.019,0.902c-2.584-0.281-5.695,2.166-8.899,3.752c-4.326,2.141-3.765,9.371-0.599,12.412
		l3.021,2.9c5.145-0.865,10.131,0.1,15.275-0.768l9.16-3.345"/>
	<path fill="none" d="M153.811,321.368c-6.21,3.444-4.977,7.487-3.273,10.588c1.717,3.123,3.994,6.894,8.99,7.063
		c10.28-0.974,19.561-4.937,29.536-10.412c2.563-1.406,3.937-3.273,5.173-5.086c0.48-0.703-1.169-3.283-2.561-6.549
		c-0.947-2.222-9.121-0.498-8.805-1.55"/>
	<path fill="none" d="M160.863,337.555c-2.002,6.627,1.787,14.115,11.933,13.322c5.996-1.658,11.52-3.832,16.717-5.496
		c3.076-1.475,2.578-1.236,5.654-2.711c1.871-1.576,8.287-6.842,9.429-8.51c2.308-2.797,0.325-8.615-3.788-9.918
		c-4.113-1.305-12.014,5.441-9.426,2.756"/>
	<path fill="none" d="M174.256,350.461c-3.721,1.51-4.236,4.508-3.852,5.467c1.792,4.455,3.479,6.236,6.879,6.322
		c9.127,0.229,13.547-3.016,20.487-7.447c2.293-1.465,8.706-6.777,6.712-10.461"/>
	<path fill="none" d="M187.815,297.893c0.232,1.59,0.973,3.185,0.699,4.765c-0.703,4.045-2.561,10.446-5.645,12.768
		c-2.338,1.761-4.469,1.845-7.391,1.982c-1.521,0.071-3.07-0.523-4.377-1.308c-1.209-0.723-2.797-1.654-2.92-3.059
		c-0.441-5.076-0.497-11.141,0.104-16.027c0.418-3.404,1.614-7.42,4.517-9.248c5.024-3.164,21.776-9.012,26.227-7.908
		c7.692,1.906,20.679,11.869,30.933,19.916c3.367,2.644,2.668,6.205,3.638,10.375"/>
	<path fill="none" d="M197.784,300.645c-2.754-0.106-4.604,0.681-7.357,0.57c2.92,11.404,5.238,19.018,15.631,27.182
		c2.686,0.713,5.367,1.424,8.052,2.138"/>
	<path fill="none" d="M172.206,301.512c1.896-0.133,3.793-0.264,5.69-0.395c0.841,0.639,1.683,1.277,2.524,1.916
		c-0.067,2.123-0.135,4.244-0.203,6.367"/>
	<polyline fill="none" points="231.719,299.868 284.881,287.012 355.352,259.576 	"/>
	<path fill="none" d="M213.84,359.334c4.443-1.561,8.021-3.082,12.09-8.25c1.135-1.139,3.014-0.705,6.508-1.131
		c30.672-3.742,121.576-11.83,141.175-15.414"/>
</g>
<g id="Chu">
	<path fill="#DA251D" d="M86.67,197.231l0.89-1.225l0.273-0.377l0.375,0.272l1.601,1.164l0.376,0.272l-0.272,0.375l-0.891,1.227
		l7.707,5.6l0.376,0.273l-0.273,0.375l-3.655,5.029c-0.456,0.627-0.889,1.166-1.299,1.613c-0.417,0.453-0.814,0.815-1.191,1.086
		v0.002c-0.987,0.707-2.113,1.104-3.379,1.187c-1.237,0.082-2.606-0.14-4.105-0.662c-0.727-0.253-1.473-0.59-2.237-1.008
		c-0.763-0.417-1.541-0.915-2.333-1.49l0,0l-0.01-0.007l-0.003-0.002c-0.481-0.35-0.934-0.702-1.357-1.057
		c-0.419-0.35-0.815-0.707-1.185-1.068c-1.904-1.864-3.015-3.777-3.331-5.736l-0.003-0.018l0,0c-0.028-0.166-0.05-0.334-0.066-0.506
		c-0.016-0.168-0.027-0.336-0.031-0.504c-0.023-0.856,0.107-1.698,0.386-2.52l0,0l0.001-0.001v-0.004
		c0.029-0.085,0.067-0.185,0.115-0.296c0.042-0.1,0.09-0.205,0.143-0.313c0.266-0.543,0.666-1.183,1.202-1.92l3.82-5.259
		l0.273-0.376L86.67,197.231L86.67,197.231z M86.5,198.254l-7.708-5.6l-3.547,4.881c-0.511,0.704-0.884,1.299-1.122,1.783
		c-0.045,0.092-0.085,0.182-0.121,0.266c-0.031,0.072-0.061,0.15-0.089,0.233h-0.001v0.001v0.004
		c-0.245,0.721-0.359,1.455-0.339,2.2c0.004,0.144,0.014,0.291,0.028,0.438c0.014,0.144,0.034,0.293,0.059,0.444v0.003l0.003,0.02
		c0.283,1.756,1.305,3.498,3.065,5.221c0.343,0.336,0.721,0.676,1.131,1.02c0.406,0.338,0.842,0.679,1.307,1.017l0,0l0.009,0.007
		l0.004,0.001c0.768,0.558,1.511,1.034,2.231,1.429c0.719,0.394,1.419,0.709,2.099,0.946c1.379,0.481,2.627,0.685,3.742,0.61
		c1.086-0.07,2.052-0.409,2.896-1.014l0,0c0.322-0.23,0.672-0.553,1.049-0.963c0.383-0.418,0.793-0.928,1.23-1.529l3.382-4.655
		l-7.708-5.601l-0.376-0.272l0.273-0.375l0.89-1.226l-0.85-0.617l-0.89,1.225l-0.273,0.376L86.5,198.254L86.5,198.254z
		 M79.49,196.106l-1.981,2.727c-0.781,1.076-1.228,2.016-1.337,2.815v0.002l-0.001,0.011c-0.017,0.127-0.028,0.252-0.03,0.374
		c-0.003,0.125,0.002,0.253,0.014,0.382v0.002c0.062,0.664,0.325,1.357,0.79,2.078h0.001l0.001,0.002l0.001,0.004l0,0l0,0v0.002
		c0.118,0.181,0.244,0.361,0.376,0.541c0.128,0.172,0.269,0.351,0.422,0.533c0.765,0.916,1.728,1.795,2.887,2.639l0.003,0.002
		l0.004,0.004v-0.002c0.475,0.346,0.934,0.652,1.373,0.922c0.445,0.271,0.873,0.506,1.282,0.703
		c2.052,0.984,3.751,1.094,5.096,0.326c0.256-0.146,0.545-0.387,0.867-0.721c0.336-0.35,0.704-0.8,1.104-1.352l1.945-2.678
		l-5.234-3.804l-2.649,3.646l-0.273,0.375l-0.375-0.271l-1.601-1.162l-0.375-0.273l0.272-0.375l2.649-3.646L79.49,196.106
		L79.49,196.106z M76.757,198.288l2.254-3.103l0.273-0.376l0.375,0.271l5.986,4.35l0.376,0.273l-0.273,0.375l-2.649,3.646
		l0.85,0.618l2.648-3.646l0.273-0.376l0.375,0.271l5.986,4.35l0.375,0.273l-0.272,0.375l-2.218,3.053
		c-0.423,0.582-0.819,1.066-1.188,1.449c-0.383,0.398-0.743,0.695-1.078,0.885c-1.625,0.928-3.61,0.829-5.953-0.297
		c-0.446-0.215-0.902-0.463-1.366-0.747c-0.469-0.286-0.948-0.606-1.435-0.96l-0.003-0.004l-0.004-0.002l0,0
		c-1.222-0.887-2.24-1.82-3.055-2.793c-0.154-0.184-0.306-0.377-0.455-0.578c-0.144-0.192-0.279-0.387-0.406-0.583h-0.001
		l-0.001-0.003l-0.003-0.006c-0.546-0.848-0.858-1.682-0.936-2.502l0,0V202.5c-0.015-0.162-0.021-0.324-0.018-0.484
		c0.003-0.164,0.016-0.325,0.038-0.48v-0.003l0.001-0.011l0,0C75.385,200.566,75.887,199.486,76.757,198.288L76.757,198.288z
		 M77.497,212.473l0.003,0.002l0.002,0.002c0.387,0.223,0.758,0.453,1.112,0.688c0.355,0.234,0.697,0.478,1.025,0.727l-0.001,0.001
		c1.689,1.284,2.979,2.739,3.865,4.36l0,0c0.751,1.369,1.123,2.735,1.114,4.1c-0.009,1.365-0.399,2.716-1.171,4.053l-0.006,0.014
		l-0.002,0.002h-0.001c-0.129,0.223-0.258,0.428-0.388,0.612c-0.138,0.199-0.285,0.392-0.439,0.575
		c-0.79,0.941-1.766,1.666-2.927,2.168v0.001l-0.012,0.005l-0.001,0.002c-0.207,0.09-0.42,0.172-0.639,0.246
		c-0.205,0.07-0.425,0.137-0.659,0.195c-1.138,0.293-2.362,0.373-3.67,0.236H74.7c-0.972-0.104-1.962-0.334-2.972-0.69
		c-0.998-0.353-2.021-0.831-3.067-1.435H68.66l-0.004-0.002l-0.006-0.002c-0.399-0.23-0.785-0.472-1.157-0.722
		c-0.368-0.247-0.72-0.502-1.054-0.764c-1.73-1.356-2.982-2.899-3.756-4.625l-0.021-0.046l-0.002-0.002
		c-0.163-0.368-0.303-0.737-0.417-1.104c-0.116-0.37-0.206-0.735-0.271-1.099c-0.333-1.87,0-3.67,0.997-5.398l0.008-0.015
		c0.196-0.339,0.408-0.655,0.634-0.95c0.228-0.296,0.472-0.572,0.733-0.83c1.333-1.311,3.068-2.061,5.203-2.249v-0.002l0.018-0.001
		h0.002c0.358-0.031,0.729-0.044,1.111-0.042c0.375,0.003,0.748,0.022,1.115,0.06C73.695,210.733,75.596,211.377,77.497,212.473
		L77.497,212.473L77.497,212.473z M77.039,213.281L77.039,213.281l-0.003-0.001l-0.002-0.002c-1.786-1.031-3.563-1.636-5.33-1.813
		c-0.346-0.035-0.689-0.055-1.028-0.058c-0.332-0.002-0.675,0.013-1.029,0.042l0,0l-0.018,0.002v-0.002
		c-1.913,0.17-3.458,0.832-4.633,1.988c-0.228,0.225-0.443,0.467-0.646,0.73c-0.203,0.266-0.393,0.549-0.569,0.853l-0.008,0.015
		c-0.884,1.53-1.178,3.123-0.884,4.773c0.058,0.326,0.139,0.652,0.241,0.982c0.104,0.33,0.231,0.666,0.381,1.006l0,0l0.02,0.043
		c0.711,1.586,1.872,3.012,3.48,4.272c0.314,0.247,0.648,0.489,1,0.724c0.345,0.232,0.713,0.461,1.101,0.685l0,0l0.004,0.002
		l0.001,0.001l0.002,0.002c0.992,0.573,1.965,1.027,2.919,1.365c0.943,0.333,1.864,0.548,2.76,0.645l0,0
		c1.2,0.125,2.316,0.053,3.345-0.212c0.189-0.048,0.386-0.106,0.59-0.177c0.19-0.064,0.38-0.139,0.57-0.221v0.002l0.01-0.004h0.001
		c1.023-0.443,1.885-1.082,2.583-1.916c0.134-0.159,0.265-0.33,0.389-0.508c0.131-0.188,0.249-0.375,0.354-0.557l0.006-0.013
		l0.002-0.003h0.001c0.686-1.191,1.033-2.387,1.041-3.582c0.007-1.201-0.327-2.418-1.001-3.649v-0.002
		c-0.824-1.507-2.029-2.864-3.612-4.067h-0.002c-0.309-0.235-0.634-0.465-0.974-0.69S77.406,213.492,77.039,213.281L77.039,213.281z
		 M75.767,215.379c-1.136-0.655-2.214-1.112-3.232-1.371c-0.998-0.252-1.938-0.313-2.82-0.178h-0.001h-0.009l0,0
		c-0.253,0.039-0.491,0.088-0.712,0.146c-0.221,0.058-0.437,0.128-0.647,0.21c-1.046,0.408-1.853,1.102-2.414,2.074v0.002
		c-0.493,0.854-0.726,1.713-0.698,2.574c0.027,0.869,0.319,1.756,0.875,2.66l0.001,0.004l0.002,0.002h-0.001
		c0.126,0.207,0.262,0.41,0.408,0.609c0.142,0.193,0.299,0.391,0.472,0.592l0,0c0.868,1.008,2.002,1.916,3.403,2.725h0.002
		l0.011,0.007v0.001c0.212,0.123,0.435,0.244,0.665,0.361c0.214,0.111,0.436,0.219,0.662,0.32c1.127,0.512,2.242,0.844,3.337,0.993
		h0.002l0.013,0.001l0,0c0.15,0.02,0.302,0.036,0.457,0.045c0.16,0.01,0.311,0.016,0.451,0.014c0.756-0.006,1.481-0.156,2.171-0.45
		c0.507-0.216,0.953-0.494,1.335-0.83c0.38-0.334,0.704-0.729,0.969-1.188h-0.001l0.027-0.047h0.001
		c0.144-0.254,0.266-0.507,0.365-0.755c0.098-0.247,0.175-0.497,0.232-0.747c0.284-1.261,0.013-2.533-0.815-3.814l0,0
		c-0.464-0.717-1.069-1.403-1.816-2.062C77.706,216.615,76.807,215.981,75.767,215.379L75.767,215.379L75.767,215.379z
		 M72.76,213.108c1.098,0.277,2.254,0.77,3.469,1.471h0.002c1.097,0.633,2.046,1.303,2.845,2.006
		c0.808,0.711,1.468,1.463,1.981,2.256h0.001c0.967,1.498,1.279,3.006,0.938,4.521c-0.066,0.293-0.158,0.589-0.275,0.886
		c-0.117,0.293-0.257,0.584-0.42,0.873v0.002l-0.027,0.045l-0.002,0.002c-0.315,0.545-0.702,1.021-1.162,1.424
		c-0.458,0.4-0.985,0.729-1.583,0.986c-0.802,0.34-1.646,0.516-2.527,0.523c-0.179,0.001-0.352-0.003-0.517-0.014
		c-0.169-0.012-0.344-0.029-0.524-0.054h-0.002l-0.013-0.001l0,0c-1.189-0.162-2.389-0.518-3.594-1.064
		c-0.228-0.104-0.463-0.219-0.705-0.344c-0.224-0.115-0.459-0.244-0.703-0.384H69.94l-0.012-0.007v-0.001
		c-1.499-0.864-2.714-1.84-3.645-2.92v-0.002c-0.176-0.206-0.349-0.423-0.515-0.651c-0.162-0.222-0.313-0.447-0.453-0.678
		l-0.001-0.001l0,0c-0.64-1.042-0.977-2.081-1.009-3.114c-0.033-1.039,0.24-2.063,0.821-3.066h0.001
		c0.672-1.164,1.633-1.99,2.878-2.478c0.236-0.092,0.487-0.173,0.752-0.243c0.265-0.07,0.534-0.125,0.806-0.166h0.002l0.009-0.002
		l0,0C70.58,212.758,71.642,212.825,72.76,213.108z M59.199,224.139l17.771,14.642l0.263,0.216l-0.127,0.314l-0.959,2.375
		l-0.125,0.311l-0.333-0.021l-23.124-1.39l-0.644-0.039l0.241-0.598l1.021-2.527l0.128-0.316l0.338,0.027l6.615,0.521l2.559-6.333
		l-5.154-4.115l-0.27-0.216l0.128-0.319l0.948-2.347l0.237-0.587L59.199,224.139L59.199,224.139z M76.119,239.279l-17.02-14.022
		l-0.582,1.439l5.154,4.115l0.271,0.216l-0.129,0.319l-2.816,6.97l-0.128,0.317l-0.338-0.026l-6.615-0.521l-0.651,1.612
		l22.147,1.332L76.119,239.279L76.119,239.279z M65.517,233.448l-1.814,4.491l5.711,0.489h0.001
		c0.889,0.078,1.737,0.162,2.544,0.252l0.167,0.019l-0.163-0.112c-0.604-0.422-1.173-0.85-1.707-1.281l-0.001-0.002L65.517,233.448
		L65.517,233.448z M62.607,238.176l2.285-5.656l0.236-0.583l0.487,0.396l5.224,4.25l0,0c0.53,0.428,1.083,0.844,1.656,1.246
		c0.574,0.401,1.183,0.799,1.823,1.192l-0.307,0.854c-0.657-0.096-1.375-0.187-2.153-0.273c-0.758-0.084-1.6-0.167-2.522-0.249l0,0
		L63,238.811l-0.627-0.055L62.607,238.176L62.607,238.176z M51.786,242.143l21.11,6.052l0.447,0.129l-0.127,0.445l-0.674,2.351
		l-0.076,0.264l-0.269,0.062l-17.417,3.945l14.833,4.252l0.448,0.129l-0.128,0.443l-0.627,2.188l-0.127,0.447l-0.446-0.127
		l-21.11-6.053l-0.447-0.129l0.127-0.445l0.671-2.338l0.076-0.266l0.269-0.062l17.433-3.936l-14.851-4.259l-0.448-0.129l0.128-0.444
		l0.631-2.201l0.128-0.448L51.786,242.143L51.786,242.143z M72.195,248.961l-20.217-5.797l-0.375,1.309l16.146,4.631l-0.025,0.898
		l-18.932,4.273l-0.467,1.629l20.217,5.797l0.371-1.294l-16.126-4.624l0.025-0.898l18.913-4.285L72.195,248.961L72.195,248.961z
		 M44.976,270.492l18.722,2.632l0.761-5.414l0.065-0.461l0.458,0.065l2.567,0.359l0.46,0.063l-0.064,0.459l-1.987,14.137
		l-0.064,0.461l-0.458-0.064l-2.567-0.36l-0.46-0.063l0.064-0.457l0.765-5.445l-18.72-2.631l-0.46-0.064l0.064-0.457l0.332-2.361
		l0.065-0.459L44.976,270.492L44.976,270.492z M64.029,274.107l-18.722-2.631l-0.203,1.439l18.72,2.631l0.46,0.064l-0.065,0.457
		l-0.766,5.445l1.649,0.231l1.858-13.22l-1.648-0.231l-0.761,5.414l-0.064,0.461L64.029,274.107L64.029,274.107z M65.732,283.521
		l0.465,0.019L66.181,284l-0.083,2.381l-0.016,0.465l-0.461-0.016l-8.553-0.299l-0.294,8.43l8.549,0.299l0.465,0.018l-0.017,0.462
		l-0.083,2.381l-0.016,0.465l-0.461-0.017l-21.948-0.768l-0.465-0.016l0.016-0.461l0.083-2.383l0.016-0.465l0.461,0.018l9.881,0.344
		l0.294-8.43l-9.878-0.346l-0.464-0.019l0.016-0.461l0.083-2.381l0.016-0.466L65.732,283.521L65.732,283.521z M65.238,284.432
		L44.217,283.7l-0.051,1.452l9.878,0.347l0.465,0.017l-0.017,0.463l-0.327,9.354l-0.016,0.465l-0.461-0.016l-9.881-0.347
		l-0.051,1.455l21.021,0.734l0.051-1.457l-8.55-0.297l-0.464-0.018l0.016-0.461l0.327-9.355l0.017-0.465l0.461,0.016l8.553,0.299
		L65.238,284.432L65.238,284.432z M43.514,300.129l22.39,5.369l0.332,0.078l0.024,0.342l0.179,2.555l0.023,0.332l-0.309,0.127
		L44.76,317.82l-0.595,0.248l-0.045-0.646l-0.19-2.719l-0.023-0.338l0.317-0.125l6.172-2.433l-0.477-6.813l-6.435-1.438
		l-0.339-0.076l-0.024-0.346l-0.177-2.525L42.9,299.98L43.514,300.129L43.514,300.129z M65.357,306.318l-21.443-5.143l0.108,1.551
		l6.435,1.439l0.339,0.074l0.024,0.346l0.524,7.498l0.024,0.338l-0.318,0.125l-6.172,2.432l0.121,1.734l20.489-8.512L65.357,306.318
		L65.357,306.318z M53.273,305.727l0.338,4.832l5.343-2.063l0,0l0.006-0.004l0.007-0.002l0.702-0.268
		c0.277-0.104,0.493-0.187,0.678-0.255c0.399-0.146,0.789-0.288,1.166-0.422l-0.195-0.03c-0.726-0.113-1.425-0.248-2.095-0.402
		h-0.002L53.273,305.727L53.273,305.727z M52.729,311.249l-0.425-6.086l-0.043-0.625l0.612,0.144l6.56,1.528l0,0
		c0.662,0.151,1.34,0.283,2.032,0.394c0.7,0.11,1.421,0.203,2.161,0.274l0.097,0.901c-0.889,0.283-1.907,0.638-3.055,1.063
		l-0.671,0.25l-0.691,0.261v0.002l-0.007,0.002l-0.005,0.004l-5.934,2.289l-0.586,0.227L52.729,311.249L52.729,311.249z
		 M45.22,319.793l21.627-3.813l0.457-0.08l0.081,0.459l0.424,2.404l0.047,0.271l-0.214,0.172l-13.925,11.183l15.198-2.681
		l0.457-0.082l0.081,0.459l0.396,2.24l0.081,0.457l-0.458,0.079l-21.627,3.814l-0.457,0.08l-0.081-0.459l-0.423-2.395l-0.047-0.271
		l0.214-0.172l13.944-11.18l-15.216,2.684l-0.457,0.08l-0.081-0.459l-0.398-2.256l-0.081-0.455L45.22,319.793L45.22,319.793z
		 M66.551,316.975l-20.713,3.652l0.237,1.342l16.543-2.916l0.371,0.818l-15.144,12.141l0.294,1.67l20.713-3.649l-0.234-1.328
		l-16.523,2.914l-0.371-0.818l15.122-12.143L66.551,316.975L66.551,316.975z M49.296,338.52l20.886-6.785l0.441-0.145l0.143,0.441
		l0.736,2.266l0.143,0.441l-0.441,0.143l-8.137,2.645l2.606,8.021l8.137-2.645l0.441-0.146l0.144,0.441l0.736,2.266l0.144,0.441
		l-0.441,0.145l-20.886,6.785l-0.441,0.146l-0.143-0.441l-0.736-2.268l-0.143-0.439l0.441-0.145l9.401-3.056l-2.606-8.021
		l-9.402,3.056l-0.441,0.144l-0.144-0.439l-0.736-2.268l-0.143-0.439L49.296,338.52L49.296,338.52z M70.028,332.758l-20.004,6.5
		l0.449,1.385l9.401-3.055l0.441-0.145l0.143,0.438l2.893,8.904l0.144,0.44l-0.441,0.146l-9.401,3.055l0.45,1.384l20.004-6.5
		l-0.45-1.384l-8.137,2.646l-0.441,0.143l-0.143-0.439l-2.893-8.903L61.9,336.93l0.441-0.143l8.137-2.645L70.028,332.758
		L70.028,332.758z M57.551,361.999l19.567-9.972l0.414-0.211l0.211,0.414l1.109,2.179l0.125,0.243l-0.155,0.229l-10.047,14.765
		l13.75-7.006l0.414-0.211l0.211,0.413l1.033,2.027l0.211,0.414l-0.414,0.211l-19.567,9.969l-0.414,0.211l-0.211-0.414l-1.105-2.168
		l-0.125-0.243l0.155-0.229l10.065-14.769l-13.766,7.017l-0.414,0.211l-0.211-0.414l-1.04-2.041l-0.21-0.414L57.551,361.999
		L57.551,361.999z M77.125,353.066l-18.74,9.55l0.618,1.213l14.967-7.627l0.594,0.676l-10.931,16.037l0.77,1.512l18.74-9.549
		l-0.611-1.199l-14.949,7.615l-0.594-0.674l10.91-16.033L77.125,353.066L77.125,353.066z M66.709,379.561l18.625-11.639l0.393-0.244
		l0.246,0.396l1.263,2.02l0.246,0.396l-0.395,0.246L68.463,382.37l-0.393,0.246l-0.246-0.396l-1.263-2.021l-0.245-0.394
		L66.709,379.561L66.709,379.561z M85.431,368.956l-17.837,11.146l0.771,1.234l17.837-11.146L85.431,368.956L85.431,368.956z
		 M70.922,385.92l17.989-12.598l0.379-0.266l0.266,0.379l7.467,10.664l0.266,0.379l-0.38,0.268l-2.124,1.486l-0.379,0.266
		l-0.266-0.379l-5.834-8.334l-4.75,3.326l5.448,7.779l0.265,0.379l-0.379,0.268l-2.111,1.477l-0.379,0.269l-0.266-0.382
		l-5.447-7.778l-5.365,3.758l6.075,8.677l0.266,0.379l-0.38,0.268l-2.123,1.486l-0.379,0.266l-0.266-0.379l-7.707-11.01
		l-0.266-0.379L70.922,385.92L70.922,385.92z M89.063,374.348l-17.231,12.064l7.176,10.25l1.365-0.957l-6.076-8.676l-0.265-0.379
		l0.38-0.269l6.124-4.286l0.379-0.267l0.266,0.379l5.447,7.781l1.353-0.947l-5.448-7.78l-0.265-0.38l0.38-0.266l5.508-3.857
		l0.379-0.264l0.266,0.379l5.834,8.332L96,384.252L89.063,374.348L89.063,374.348z M81.417,400.17l16.823-14.115l0.355-0.299
		l0.298,0.355l1.571,1.873l0.176,0.209l-0.1,0.256l-6.469,16.646l11.823-9.92l0.355-0.299l0.299,0.356l1.462,1.74l0.298,0.355
		l-0.356,0.299l-16.823,14.117l-0.355,0.297l-0.299-0.355l-1.564-1.862l-0.175-0.209l0.099-0.256l6.486-16.656l-11.836,9.934
		l-0.355,0.297l-0.299-0.354l-1.472-1.754l-0.298-0.355L81.417,400.17L81.417,400.17z M98.481,387.064l-16.112,13.521l0.875,1.045
		l12.869-10.799l0.73,0.521L89.8,409.44l1.089,1.299l16.112-13.521l-0.866-1.033l-12.853,10.785l-0.73-0.521l7.025-18.078
		L98.481,387.064L98.481,387.064z M114.146,420.518l1.4,2.082l0.236,0.353l-0.329,0.268l-0.011,0.008l-0.001,0.003
		c-0.259,0.209-0.51,0.399-0.751,0.571c-0.245,0.176-0.497,0.347-0.753,0.506c-1.297,0.813-2.585,1.313-3.863,1.502h-0.003
		l-0.011,0.003c-0.286,0.038-0.573,0.063-0.86,0.069c-0.285,0.006-0.566-0.004-0.843-0.028c-1.428-0.138-2.768-0.709-4.017-1.72
		v-0.002l-0.002-0.002l-0.003-0.002c-0.379-0.307-0.723-0.631-1.032-0.973c-0.311-0.347-0.583-0.703-0.817-1.074
		c-1.206-1.92-1.419-4.229-0.639-6.92h-0.001c0.278-0.979,0.686-1.959,1.222-2.937c0.531-0.969,1.192-1.938,1.982-2.916l0,0
		l0.015-0.02h0.002c0.43-0.531,0.863-1.021,1.297-1.467c0.435-0.447,0.877-0.859,1.326-1.232c2.324-1.932,4.749-2.774,7.272-2.529
		h0.004c0.817,0.085,1.593,0.275,2.327,0.58c0.731,0.308,1.423,0.722,2.074,1.246l-0.001,0.002l0.009,0.009l0.003,0.002
		c0.217,0.176,0.42,0.354,0.609,0.543c0.189,0.188,0.368,0.383,0.535,0.584c0.853,1.032,1.357,2.223,1.509,3.559l0,0
		c0.099,0.832,0.06,1.691-0.117,2.58v0.002c-0.175,0.875-0.484,1.783-0.928,2.721l-0.19,0.4l-0.41-0.172l-2.241-0.945l-0.438-0.186
		l0.195-0.435c0.615-1.36,0.857-2.549,0.727-3.561c-0.125-0.976-0.608-1.801-1.448-2.482c-0.883-0.715-1.813-1.098-2.787-1.149
		c-0.986-0.054-2.036,0.229-3.146,0.85l-0.001,0.002l0,0c-0.171,0.096-0.333,0.195-0.485,0.295
		c-0.162,0.107-0.326,0.224-0.491,0.347l0.001,0.002c-0.856,0.646-1.723,1.508-2.595,2.586c-0.738,0.91-1.341,1.797-1.806,2.655
		c-0.458,0.851-0.783,1.671-0.972,2.468h-0.002l-0.001,0.006h0.002c-0.07,0.297-0.12,0.58-0.148,0.848
		c-0.028,0.271-0.037,0.535-0.025,0.789c0.058,1.281,0.634,2.367,1.727,3.252c0.527,0.426,1.085,0.713,1.672,0.855l0,0
		c0.586,0.145,1.208,0.146,1.867,0.01h0.002h0.005l0,0c0.163-0.035,0.321-0.076,0.473-0.121c0.158-0.049,0.317-0.105,0.477-0.168
		c0.829-0.328,1.667-0.863,2.509-1.604l0.396-0.348L114.146,420.518L114.146,420.518z M114.536,422.758l-0.872-1.295
		c-0.789,0.637-1.582,1.111-2.375,1.428c-0.183,0.072-0.367,0.138-0.55,0.191c-0.189,0.059-0.374,0.105-0.552,0.143h-0.002
		l-0.006,0.002l0,0c-0.795,0.166-1.554,0.16-2.275-0.018h-0.002c-0.72-0.176-1.398-0.521-2.035-1.037
		c-1.308-1.061-1.999-2.371-2.069-3.932c-0.013-0.301-0.003-0.607,0.029-0.922c0.033-0.32,0.089-0.646,0.166-0.97h0.001l0.002-0.006
		l-0.002-0.002c0.206-0.869,0.56-1.768,1.059-2.688c0.491-0.908,1.126-1.845,1.904-2.806c0.923-1.139,1.843-2.055,2.755-2.739h0.002
		c0.178-0.136,0.358-0.263,0.539-0.382c0.19-0.125,0.371-0.233,0.541-0.332l0.005-0.002c1.266-0.704,2.48-1.024,3.643-0.965
		c1.175,0.064,2.283,0.519,3.324,1.359c1.031,0.834,1.625,1.861,1.783,3.084c0.138,1.072-0.066,2.279-0.612,3.623l1.395,0.588
		c0.313-0.721,0.537-1.422,0.672-2.104l0,0c0.158-0.794,0.193-1.558,0.106-2.291v-0.005c-0.131-1.153-0.566-2.182-1.303-3.073
		c-0.143-0.175-0.3-0.345-0.469-0.513c-0.171-0.168-0.353-0.33-0.544-0.483v-0.002l-0.009-0.008l-0.003-0.003
		c-0.577-0.467-1.192-0.836-1.845-1.104c-0.651-0.271-1.34-0.443-2.065-0.519v-0.002c-2.268-0.219-4.465,0.558-6.59,2.322
		c-0.417,0.346-0.835,0.734-1.253,1.166c-0.418,0.43-0.833,0.898-1.242,1.402l0,0l-0.015,0.018l-0.001,0.002
		c-0.751,0.929-1.381,1.855-1.889,2.781c-0.503,0.916-0.884,1.83-1.142,2.738l-0.002,0.004c-0.704,2.426-0.526,4.483,0.533,6.172
		c0.208,0.33,0.447,0.645,0.718,0.947c0.274,0.303,0.584,0.594,0.93,0.875h-0.001l0.002,0.002l0.004,0.002
		c1.103,0.893,2.276,1.396,3.518,1.516c0.242,0.023,0.488,0.031,0.735,0.025c0.245-0.006,0.497-0.027,0.754-0.064h0.008v-0.002
		c1.149-0.17,2.319-0.627,3.507-1.371c0.228-0.143,0.462-0.299,0.703-0.471C114.279,422.952,114.409,422.856,114.536,422.758
		L114.536,422.758z M118.888,420.934l0.004-0.006c0.242-0.373,0.49-0.731,0.744-1.076c0.257-0.346,0.517-0.676,0.778-0.981
		c1.37-1.619,2.891-2.83,4.558-3.631v-0.002c1.408-0.681,2.792-0.979,4.153-0.898c0.769,0.045,1.528,0.213,2.277,0.5
		c2.292,1.098,2.865,1.781,3.127,2.031l-0.011-0.008c0.776,0.789,1.363,1.721,1.762,2.795l0.006,0.016l0.002,0.002
		c0.077,0.211,0.147,0.428,0.211,0.65c0.06,0.213,0.113,0.436,0.161,0.668c0.231,1.147,0.246,2.375,0.042,3.672v0.002
		c-0.154,0.965-0.436,1.941-0.845,2.932c-0.407,0.984-0.939,1.982-1.596,2.994l-0.002,0.004l-0.003,0.006h-0.001
		c-0.25,0.388-0.51,0.759-0.777,1.113c-0.268,0.357-0.542,0.695-0.819,1.015c-1.443,1.653-3.049,2.823-4.813,3.508l-0.002,0.002
		l-0.019,0.008v-0.002c-0.378,0.146-0.753,0.268-1.125,0.363c-0.372,0.098-0.743,0.17-1.112,0.217
		c-1.896,0.242-3.685-0.185-5.365-1.273h-0.002l-0.034-0.021c-0.322-0.211-0.626-0.441-0.912-0.687
		c-0.287-0.248-0.55-0.508-0.788-0.774c-1.229-1.396-1.881-3.162-1.958-5.297v-0.002l-0.001-0.046v-0.004
		c-0.012-0.375-0.006-0.744,0.017-1.108c0.023-0.365,0.064-0.734,0.122-1.109C116.959,424.62,117.7,422.764,118.888,420.934
		L118.888,420.934z M120.382,420.405c-0.241,0.323-0.478,0.666-0.709,1.022l-0.005,0.008c-1.118,1.724-1.814,3.457-2.087,5.205
		c-0.052,0.334-0.09,0.677-0.111,1.021c-0.021,0.348-0.027,0.688-0.017,1.029l0.001,0.043c0.069,1.909,0.645,3.481,1.729,4.717
		c0.214,0.242,0.446,0.471,0.693,0.684c0.25,0.215,0.523,0.42,0.818,0.613l0.034,0.021l0,0c1.49,0.97,3.072,1.347,4.742,1.134
		c0.326-0.041,0.659-0.107,0.996-0.193c0.337-0.088,0.68-0.199,1.026-0.332l0.001-0.002l0.019-0.008v0.002
		c1.621-0.629,3.105-1.713,4.448-3.254c0.265-0.306,0.524-0.623,0.775-0.959c0.251-0.334,0.5-0.689,0.744-1.066l0.002-0.006
		l0.003-0.004h0.001c0.625-0.963,1.13-1.91,1.513-2.838c0.382-0.924,0.644-1.832,0.787-2.726l0,0
		c0.188-1.188,0.174-2.305-0.035-3.346c-0.04-0.195-0.088-0.396-0.146-0.6c-0.055-0.193-0.118-0.39-0.189-0.582h0.001l-0.005-0.017
		c-0.389-1.045-0.981-1.938-1.776-2.68c-0.151-0.141-0.314-0.279-0.489-0.416c-0.178-0.139-0.357-0.266-0.537-0.383l-0.005-0.002
		l-0.004-0.002l0.001-0.002c-1.156-0.748-2.333-1.158-3.531-1.23c-1.201-0.07-2.433,0.199-3.696,0.809h-0.001
		c-1.546,0.742-2.964,1.875-4.251,3.396C120.869,419.768,120.621,420.081,120.382,420.405L120.382,420.405z M131.463,414.86
		c0.556,0.221,1.105,0.508,1.649,0.858l0.005,0.002l0.004,0.002l-0.001,0.002c0.214,0.142,0.414,0.281,0.598,0.425
		c0.188,0.146,0.372,0.303,0.55,0.471l-0.091-0.037L131.463,414.86L131.463,414.86z M121.701,422.811
		c-0.716,1.104-1.229,2.156-1.54,3.156c-0.304,0.984-0.413,1.92-0.325,2.808v0.002l0.001,0.016l0,0
		c0.024,0.246,0.061,0.486,0.108,0.715l0,0c0.048,0.234,0.106,0.453,0.175,0.66c0.353,1.063,1.003,1.902,1.946,2.514
		c0.827,0.537,1.671,0.814,2.534,0.832c0.87,0.021,1.771-0.227,2.702-0.731l0.003-0.002l0.002-0.002
		c0.216-0.115,0.428-0.242,0.634-0.377c0.208-0.136,0.414-0.281,0.616-0.438c1.049-0.813,2.016-1.897,2.898-3.258v-0.002
		l0.005-0.008h0.001c0.129-0.199,0.262-0.416,0.396-0.646c0.127-0.217,0.246-0.432,0.356-0.645c0.571-1.101,0.96-2.195,1.167-3.281
		l0.004-0.023c0.028-0.147,0.051-0.301,0.069-0.455c0.018-0.155,0.031-0.307,0.037-0.444c0.032-0.756-0.081-1.484-0.337-2.188l0,0
		c-0.19-0.52-0.443-0.979-0.757-1.377c-0.313-0.396-0.693-0.74-1.137-1.028l0,0l-0.083-0.054l0,0
		c-0.242-0.153-0.486-0.285-0.731-0.395h-0.001c-0.248-0.111-0.492-0.201-0.731-0.269c-1.235-0.336-2.509-0.131-3.819,0.623
		c-0.741,0.426-1.459,0.994-2.156,1.707C123.036,420.938,122.356,421.801,121.701,422.811L121.701,422.811z M119.275,425.696
		c0.335-1.086,0.885-2.215,1.648-3.392c0.689-1.061,1.407-1.973,2.154-2.733c0.753-0.771,1.538-1.392,2.355-1.861
		c1.533-0.879,3.043-1.117,4.524-0.711c0.296,0.08,0.587,0.184,0.869,0.313l0,0c0.285,0.127,0.568,0.28,0.849,0.456l0.003,0.003
		l0.083,0.055l0.002,0.002c0.528,0.342,0.982,0.754,1.361,1.231c0.378,0.48,0.68,1.025,0.902,1.634v0.002
		c0.298,0.813,0.429,1.664,0.392,2.541c-0.008,0.178-0.021,0.352-0.04,0.516c-0.02,0.17-0.047,0.344-0.08,0.521l-0.004,0.022
		c-0.225,1.18-0.643,2.363-1.254,3.539c-0.12,0.23-0.246,0.459-0.377,0.686c-0.124,0.212-0.265,0.439-0.422,0.683v0.002l-0.005,0.01
		h-0.001c-0.939,1.445-1.977,2.607-3.108,3.484c-0.222,0.17-0.448,0.332-0.678,0.479c-0.231,0.15-0.465,0.291-0.699,0.416l0,0l0,0
		c-1.076,0.586-2.13,0.867-3.163,0.847c-1.041-0.021-2.047-0.349-3.021-0.979c-1.124-0.729-1.898-1.731-2.321-3.002
		c-0.083-0.248-0.15-0.502-0.205-0.76v-0.002c-0.054-0.263-0.095-0.533-0.123-0.814v-0.002l-0.001-0.014l0,0
		C118.813,427.854,118.934,426.797,119.275,425.696L119.275,425.696z M130.917,441.102l9.281-19.901l0.197-0.422l0.421,0.196
		l2.215,1.031l0.249,0.117l0.018,0.275l1.172,17.815l6.521-13.981l0.196-0.425l0.421,0.197l2.063,0.961l0.422,0.197l-0.196,0.42
		l-9.281,19.904l-0.196,0.422l-0.421-0.197l-2.206-1.027l-0.249-0.114l-0.019-0.277l-1.16-17.832l-6.529,14.002l-0.197,0.422
		l-0.421-0.197l-2.076-0.969l-0.421-0.194L130.917,441.102L130.917,441.102z M140.844,422.012l-8.888,19.063l1.233,0.576
		l7.099-15.226l0.885,0.166l1.26,19.367l1.536,0.717l8.889-19.063l-1.22-0.568l-7.09,15.205l-0.884-0.168l-1.273-19.35
		L140.844,422.012L140.844,422.012z M159.538,443.889l0.844-2.45l0.152-0.439l0.438,0.15l7.208,2.481l0.44,0.15l-0.152,0.438
		l-2.652,7.707l-0.063,0.187l-0.178,0.084c-1.529,0.721-3.004,1.149-4.422,1.293c-1.433,0.143-2.804-0.015-4.113-0.463
		c-1.832-0.634-3.267-1.607-4.302-2.931c-1.032-1.315-1.657-2.967-1.877-4.946c-0.106-0.966-0.086-1.979,0.06-3.039
		c0.146-1.058,0.416-2.156,0.811-3.302c0.344-0.995,0.753-1.93,1.229-2.799c0.475-0.867,1.016-1.666,1.623-2.396
		c0.724-0.867,1.496-1.578,2.317-2.127c0.83-0.556,1.71-0.947,2.642-1.175l0.023-0.006c0.234-0.059,0.46-0.104,0.678-0.137
		c0.221-0.035,0.451-0.061,0.69-0.076c1.18-0.08,2.401,0.101,3.661,0.533l0.003,0.002h0.004l0,0c0.356,0.123,0.7,0.262,1.03,0.418
		l0,0c0.322,0.152,0.631,0.32,0.923,0.504h0.002c1.507,0.945,2.507,2.269,3,3.957l0.002,0.004l0.009,0.033v0.002
		c0.046,0.168,0.086,0.334,0.118,0.496c0.03,0.154,0.058,0.33,0.083,0.525c0.115,0.899,0.1,1.938-0.049,3.104l-0.051,0.408
		l-0.41-0.004l-2.26-0.019l-0.513-0.002l0.054-0.508c0.107-1.027,0.062-1.928-0.141-2.69c-0.195-0.738-0.538-1.355-1.029-1.851
		v0.002l-0.004-0.004h0.002c-0.064-0.063-0.14-0.133-0.227-0.209h0.001c-0.072-0.063-0.152-0.127-0.24-0.193
		c-0.426-0.319-0.92-0.577-1.476-0.77c-1.151-0.396-2.23-0.455-3.235-0.172c-1.017,0.285-1.972,0.916-2.868,1.895l-0.003,0.004l0,0
		l-0.006,0.009l-0.003,0.004l-0.003,0.004l0,0c-0.125,0.137-0.25,0.283-0.372,0.436c-0.129,0.162-0.252,0.328-0.367,0.494
		c-0.615,0.891-1.145,1.975-1.582,3.242c-0.393,1.143-0.639,2.205-0.736,3.188c-0.096,0.974-0.049,1.873,0.137,2.699l0,0
		l0.002,0.008v0.002c0.063,0.277,0.143,0.546,0.236,0.796s0.203,0.485,0.326,0.711h0.002c0.635,1.147,1.688,1.977,3.156,2.481
		c0.396,0.137,0.816,0.229,1.26,0.277c0.453,0.049,0.938,0.055,1.453,0.016c0.514-0.039,0.986-0.119,1.418-0.235
		c0.365-0.101,0.708-0.23,1.025-0.392l1.121-3.256l-4.559-1.568l-0.441-0.149L159.538,443.889L159.538,443.889z M161.109,442.178
		l-0.541,1.572l4.56,1.57l0.439,0.149l-0.15,0.439l-1.332,3.867l-0.217,0.256c-0.418,0.229-0.881,0.414-1.384,0.553
		c-0.498,0.135-1.028,0.225-1.593,0.269c-0.566,0.045-1.107,0.036-1.619-0.021c-0.521-0.057-1.009-0.162-1.464-0.32
		c-1.694-0.582-2.917-1.555-3.669-2.916h0.001c-0.147-0.266-0.274-0.543-0.384-0.834c-0.11-0.291-0.2-0.596-0.272-0.912l0,0
		l-0.001-0.006v-0.002c-0.209-0.926-0.261-1.924-0.154-2.998c0.105-1.063,0.365-2.192,0.778-3.396
		c0.463-1.346,1.031-2.504,1.698-3.469c0.134-0.193,0.27-0.377,0.402-0.546c0.139-0.174,0.281-0.342,0.43-0.502l0.013-0.014
		l0.002-0.004l0.001,0.002c1.014-1.102,2.11-1.818,3.286-2.148c1.192-0.334,2.456-0.271,3.789,0.188
		c0.646,0.223,1.226,0.525,1.733,0.908c0.094,0.069,0.189,0.147,0.287,0.231h0.002c0.084,0.072,0.174,0.158,0.271,0.254h0.001
		l0.003,0.002v0.003c0.608,0.61,1.032,1.366,1.271,2.268c0.195,0.742,0.266,1.582,0.207,2.518l1.344,0.011
		c0.093-0.922,0.093-1.744,0.002-2.466c-0.02-0.145-0.044-0.299-0.076-0.463c-0.031-0.153-0.064-0.299-0.1-0.426l0,0l-0.01-0.033
		l0.002-0.002c-0.428-1.461-1.297-2.604-2.604-3.426v-0.002c-0.254-0.16-0.53-0.309-0.825-0.447h-0.002
		c-0.289-0.137-0.603-0.264-0.937-0.377l-0.002-0.002l-0.004-0.002l0,0c-1.146-0.393-2.246-0.555-3.299-0.484l0,0
		c-0.197,0.015-0.402,0.035-0.609,0.066c-0.211,0.033-0.413,0.074-0.602,0.119l-0.023,0.006c-0.823,0.201-1.604,0.551-2.344,1.043
		c-0.748,0.502-1.455,1.152-2.121,1.951c-0.566,0.682-1.074,1.432-1.521,2.246c-0.447,0.813-0.833,1.701-1.163,2.658
		c-0.377,1.094-0.634,2.135-0.771,3.125c-0.135,0.981-0.153,1.92-0.055,2.811c0.199,1.809,0.762,3.301,1.684,4.48
		c0.92,1.174,2.212,2.047,3.873,2.616c1.187,0.408,2.427,0.55,3.722,0.421c1.255-0.125,2.567-0.5,3.938-1.128l2.438-7.081
		L161.109,442.178L161.109,442.178z M174.95,449.288l2.254,0.19l0.465,0.041l-0.041,0.466c-0.094,1.021-0.008,1.905,0.259,2.655
		c0.259,0.728,0.692,1.328,1.3,1.808l0.002,0.002c0.318,0.25,0.668,0.461,1.051,0.631v0.002c0.381,0.168,0.799,0.297,1.252,0.387
		h0.002l0.021,0.004l0,0c0.159,0.029,0.319,0.058,0.478,0.074c0.164,0.021,0.316,0.031,0.455,0.039
		c0.743,0.029,1.406-0.094,1.987-0.371h0.002c0.44-0.209,0.795-0.492,1.062-0.852c0.271-0.363,0.459-0.813,0.563-1.349l0.001-0.008
		c0.029-0.158,0.05-0.311,0.059-0.455c0.008-0.147,0.008-0.293-0.006-0.426c-0.063-0.693-0.402-1.301-1.021-1.818l0,0l0,0
		l-0.002-0.002c-0.069-0.057-0.146-0.112-0.225-0.172c-0.092-0.063-0.197-0.135-0.312-0.209c-0.608-0.395-1.538-0.916-2.791-1.563
		l-0.003-0.002c-0.647-0.342-1.207-0.658-1.676-0.951c-0.481-0.299-0.875-0.578-1.182-0.838l-0.003-0.002
		c-0.13-0.107-0.257-0.226-0.38-0.345l-0.001-0.002c-0.121-0.116-0.235-0.239-0.345-0.364c-0.557-0.646-0.947-1.373-1.172-2.187l0,0
		l-0.012-0.043l-0.004-0.002c-0.035-0.123-0.066-0.254-0.097-0.393c-0.042-0.197-0.073-0.4-0.095-0.605v-0.002
		c-0.062-0.611-0.028-1.242,0.098-1.895l0.002-0.011v-0.002c0.051-0.262,0.115-0.521,0.191-0.774s0.162-0.496,0.256-0.728
		c0.504-1.205,1.301-2.141,2.389-2.803v0.002c0.732-0.451,1.527-0.742,2.385-0.871c0.848-0.125,1.756-0.096,2.723,0.092l0.009,0.002
		c0.399,0.078,0.776,0.175,1.13,0.285c0.352,0.111,0.691,0.242,1.018,0.396c1.666,0.776,2.782,2.031,3.344,3.764l0,0l0.008,0.023
		l0.001,0.002c0.056,0.172,0.106,0.346,0.149,0.521l0,0c0.043,0.174,0.082,0.354,0.112,0.529c0.156,0.899,0.142,1.818-0.039,2.746
		l-0.081,0.416l-0.42-0.041l-2.289-0.232l-0.465-0.047l0.049-0.463c0.137-1.285-0.051-2.295-0.566-3.025
		c-0.51-0.725-1.358-1.202-2.549-1.436l-0.031-0.006c-0.146-0.027-0.291-0.054-0.439-0.068l-0.001-0.002
		c-0.136-0.018-0.276-0.031-0.419-0.039c-0.68-0.039-1.279,0.049-1.795,0.267h-0.002c-0.398,0.163-0.719,0.399-0.961,0.709
		c-0.244,0.313-0.413,0.702-0.504,1.174l-0.002,0.008c-0.024,0.133-0.041,0.262-0.049,0.385c-0.008,0.119-0.008,0.238,0.002,0.355
		v0.002c0.045,0.582,0.312,1.096,0.799,1.541h0.001c0.052,0.049,0.112,0.098,0.175,0.146c0.066,0.051,0.146,0.109,0.236,0.17
		c0.467,0.32,1.173,0.718,2.113,1.188l0.002,0.002l0,0h0.002v0.002l0.004,0.002c0.272,0.135,0.492,0.244,0.676,0.338
		c0.22,0.111,0.426,0.219,0.615,0.32l0,0c1.012,0.535,1.75,0.988,2.219,1.354c1.049,0.822,1.773,1.773,2.174,2.857
		c0.398,1.084,0.471,2.285,0.213,3.609l-0.001,0.008v0.002c-0.032,0.172-0.073,0.348-0.121,0.524
		c-0.046,0.177-0.098,0.347-0.153,0.509c-0.289,0.854-0.72,1.623-1.287,2.301l0,0l-0.002,0.002c-0.112,0.137-0.231,0.27-0.356,0.397
		c-0.121,0.125-0.249,0.246-0.382,0.363l0.001,0.002c-0.673,0.592-1.444,1.021-2.313,1.291l0,0
		c-0.599,0.188-1.236,0.291-1.912,0.312c-0.668,0.021-1.369-0.041-2.102-0.185l-0.008-0.002c-0.313-0.063-0.621-0.137-0.926-0.225
		c-0.295-0.086-0.582-0.185-0.857-0.295h-0.002c-1.43-0.57-2.549-1.461-3.355-2.668c-0.576-0.859-0.951-1.802-1.125-2.818
		c-0.172-1.01-0.146-2.096,0.078-3.252l0.08-0.412L174.95,449.288L174.95,449.288z M176.672,450.368l-1.377-0.117
		c-0.135,0.893-0.137,1.729-0.004,2.51c0.152,0.892,0.479,1.709,0.98,2.459c0.701,1.047,1.68,1.822,2.932,2.324l0,0
		c0.246,0.098,0.504,0.188,0.773,0.266c0.264,0.074,0.543,0.144,0.841,0.201h0.009c0.672,0.131,1.307,0.189,1.9,0.172
		c0.586-0.018,1.141-0.106,1.662-0.271h0.002c0.738-0.229,1.398-0.598,1.973-1.104h0.002c0.109-0.096,0.219-0.2,0.326-0.311
		c0.104-0.109,0.208-0.225,0.311-0.35v0.002v-0.002l0.004-0.007c0.494-0.588,0.867-1.256,1.121-2.002
		c0.049-0.146,0.095-0.297,0.134-0.444c0.038-0.146,0.075-0.304,0.106-0.47l0,0l0.002-0.006c0.223-1.153,0.166-2.192-0.174-3.115
		c-0.339-0.92-0.964-1.733-1.873-2.444c-0.422-0.332-1.115-0.752-2.082-1.267l0,0c-0.195-0.104-0.396-0.209-0.603-0.313
		c-0.241-0.123-0.466-0.236-0.66-0.332v0.002l-0.005-0.002l-0.008-0.004c-0.975-0.486-1.719-0.906-2.227-1.254
		c-0.099-0.068-0.193-0.14-0.279-0.205c-0.086-0.064-0.16-0.127-0.223-0.187h-0.001l-0.001-0.002l-0.002-0.002l-0.005-0.004
		l-0.002-0.002c-0.668-0.609-1.035-1.328-1.101-2.154l0,0v-0.002c-0.012-0.155-0.013-0.317-0.002-0.483
		c0.012-0.166,0.033-0.334,0.064-0.502l0.001-0.009c0.12-0.618,0.349-1.145,0.687-1.571c0.34-0.435,0.785-0.767,1.336-0.992l0,0
		c0.646-0.271,1.381-0.381,2.203-0.334c0.15,0.008,0.313,0.022,0.481,0.045v-0.002c0.16,0.021,0.328,0.047,0.501,0.08l0.031,0.006
		c1.436,0.279,2.48,0.885,3.133,1.813c0.581,0.826,0.836,1.894,0.768,3.193l1.402,0.144c0.09-0.677,0.08-1.343-0.033-1.996
		c-0.027-0.152-0.06-0.31-0.099-0.461v-0.005c-0.038-0.149-0.082-0.305-0.132-0.459h0.001l-0.009-0.022v-0.004
		c-0.479-1.476-1.432-2.543-2.854-3.209c-0.274-0.129-0.578-0.244-0.905-0.349c-0.324-0.104-0.666-0.188-1.023-0.26l-0.008-0.002
		c-0.865-0.168-1.67-0.195-2.416-0.084c-0.733,0.109-1.414,0.357-2.034,0.74l-0.003,0.002c-0.916,0.557-1.586,1.346-2.012,2.365
		c-0.086,0.203-0.16,0.414-0.226,0.631c-0.063,0.217-0.121,0.449-0.169,0.692l0,0l-0.001,0.009c-0.11,0.565-0.14,1.108-0.087,1.627
		l0,0c0.018,0.172,0.044,0.342,0.08,0.512c0.021,0.104,0.049,0.213,0.082,0.326h-0.002l0.012,0.039l0.002,0.008
		c0.188,0.68,0.516,1.291,0.982,1.832c0.09,0.104,0.188,0.209,0.291,0.311c0.101,0.099,0.211,0.197,0.328,0.295l0,0l0.008,0.009
		c0.271,0.229,0.629,0.479,1.072,0.758c0.454,0.283,0.994,0.59,1.617,0.918c1.277,0.66,2.232,1.195,2.867,1.606
		c0.126,0.082,0.242,0.158,0.343,0.232c0.112,0.078,0.206,0.148,0.279,0.209l0.005,0.006l0,0c0.814,0.683,1.264,1.498,1.352,2.447
		c0.017,0.186,0.02,0.373,0.008,0.561c-0.01,0.191-0.035,0.388-0.072,0.578l-0.001,0.01c-0.13,0.671-0.375,1.246-0.729,1.726
		c-0.361,0.481-0.83,0.861-1.41,1.137v0.002c-0.715,0.34-1.523,0.494-2.422,0.457c-0.183-0.008-0.358-0.022-0.529-0.043
		c-0.176-0.021-0.357-0.049-0.543-0.084h-0.002l-0.021-0.004v-0.002c-0.517-0.102-1.001-0.252-1.452-0.451h-0.002
		c-0.449-0.199-0.863-0.449-1.244-0.75l0,0c-0.752-0.59-1.287-1.332-1.605-2.229C176.743,452.196,176.629,451.334,176.672,450.368
		L176.672,450.368z M189.504,459.348l8.807-21.272l0.131-0.316l0.337,0.029l2.552,0.223l0.332,0.029l0.078,0.326l5.432,22.52
		l0.15,0.629l-0.642-0.057l-2.716-0.238l-0.338-0.028l-0.073-0.335l-1.435-6.475l-6.805-0.596l-2.429,6.131l-0.128,0.322
		l-0.344-0.029l-2.521-0.221l-0.63-0.058L189.504,459.348L189.504,459.348z M199.038,438.743l-8.435,20.373l1.547,0.137l2.429-6.133
		l0.127-0.322l0.344,0.031l7.488,0.654l0.338,0.028l0.074,0.332l1.436,6.479l1.734,0.149l-5.201-21.565L199.038,438.743
		L199.038,438.743z M196.563,450.584l4.822,0.422l-1.202-5.604c-0.203-0.955-0.38-1.847-0.533-2.668l-0.06,0.186
		c-0.225,0.691-0.469,1.361-0.729,2.006v0.002L196.563,450.584z M201.932,451.987l-6.076-0.531l-0.627-0.057l0.236-0.582l2.537-6.24
		l0,0c0.252-0.621,0.486-1.271,0.705-1.945c0.222-0.68,0.424-1.377,0.61-2.094l0.908,0.047c0.2,1.316,0.489,2.857,0.866,4.623
		l1.334,6.221l0.132,0.613L201.932,451.987L201.932,451.987z M209.202,460.704l-0.767-21.947l-0.017-0.463l0.465-0.016l2.443-0.084
		l0.271-0.013l0.141,0.236l9.138,15.35l-0.539-15.43l-0.017-0.461l0.466-0.016l2.272-0.08l0.461-0.019l0.019,0.466l0.767,21.948
		l0.016,0.461l-0.465,0.017l-2.433,0.086l-0.272,0.01l-0.142-0.236l-9.131-15.364l0.539,15.444l0.018,0.461l-0.465,0.017
		l-2.289,0.08l-0.461,0.018L209.202,460.704L209.202,460.704z M209.377,439.188l0.733,21.021l1.363-0.047l-0.586-16.791l0.862-0.25
		l9.916,16.684l1.694-0.059l-0.733-21.021l-1.348,0.05l0.583,16.77l-0.858,0.25l-9.92-16.664L209.377,439.188L209.377,439.188z
		 M234.178,458.938l-4.189-21.559l-0.088-0.453l0.457-0.09l2.338-0.453l0.455-0.09l0.088,0.457l1.634,8.398l8.278-1.609l-1.635-8.4
		l-0.088-0.455l0.457-0.088l2.34-0.455l0.453-0.088l0.09,0.457l4.189,21.56l0.088,0.453l-0.455,0.09l-2.34,0.455l-0.455,0.088
		l-0.088-0.457l-1.887-9.701l-8.279,1.606l1.887,9.705l0.088,0.453l-0.455,0.09l-2.34,0.455l-0.453,0.088L234.178,458.938
		L234.178,458.938z M230.988,437.661L235,458.305l1.428-0.274l-1.887-9.705l-0.088-0.455l0.457-0.088l9.189-1.787l0.455-0.088
		l0.088,0.457l1.887,9.701l1.428-0.277l-4.014-20.646l-1.428,0.277l1.633,8.4l0.09,0.453l-0.457,0.09l-9.191,1.785l-0.455,0.09
		l-0.088-0.457l-1.633-8.396L230.988,437.661L230.988,437.661z M248.913,445.159l-0.006-0.019h-0.003
		c-0.141-0.405-0.27-0.821-0.387-1.248c-0.11-0.407-0.211-0.815-0.295-1.221c-0.43-2.074-0.447-4.012-0.055-5.811
		c0.332-1.529,0.949-2.808,1.85-3.828c0.961-1.09,2.185-1.822,3.545-2.291h0.004l0.113-0.037l0.002-0.002
		c0.236-0.078,0.474-0.146,0.703-0.199h0.002c0.201-0.049,0.404-0.09,0.611-0.121l0,0l0.506-0.063h0.002
		c1.039-0.097,2.076,0.021,3.107,0.35h0.006v0.002c0.229,0.074,0.445,0.152,0.643,0.232c0.215,0.086,0.424,0.182,0.627,0.28
		c1.053,0.525,2.031,1.271,2.937,2.236c0.661,0.715,1.26,1.539,1.789,2.471c0.524,0.931,0.983,1.966,1.377,3.103l-0.002,0.002
		l0.01,0.029H266c0.152,0.44,0.285,0.877,0.4,1.303c0.113,0.426,0.211,0.85,0.291,1.266c0.41,2.15,0.342,4.129-0.203,5.933l0,0
		l-0.002,0.004v0.002c-0.113,0.377-0.25,0.75-0.406,1.11c-0.158,0.361-0.328,0.699-0.514,1.015
		c-0.979,1.647-2.416,2.803-4.314,3.455l0,0l-0.008,0.002l-0.002,0.002c-0.363,0.125-0.73,0.225-1.104,0.301
		c-0.368,0.076-0.733,0.125-1.098,0.146c-1.869,0.114-3.67-0.455-5.408-1.716h0.002l-0.004-0.002
		c-0.305-0.221-0.596-0.455-0.871-0.696c-0.272-0.242-0.543-0.502-0.803-0.777c-1.313-1.396-2.33-3.131-3.047-5.209v-0.004H248.913
		L248.913,445.159z M249.786,444.842l0.006,0.019l0,0c0.674,1.955,1.621,3.582,2.842,4.877c0.232,0.246,0.479,0.483,0.742,0.715
		c0.258,0.229,0.524,0.44,0.801,0.643l0,0l0.005,0.004c1.559,1.127,3.159,1.644,4.809,1.539c0.32-0.02,0.645-0.063,0.967-0.129
		c0.32-0.063,0.65-0.155,0.986-0.27h0.002l0.006-0.002l0.002-0.004c1.684-0.578,2.957-1.597,3.816-3.05
		c0.174-0.291,0.326-0.594,0.463-0.905c0.135-0.312,0.256-0.648,0.365-1.017h0.002v-0.004l0,0c0.502-1.66,0.563-3.49,0.184-5.488
		c-0.076-0.393-0.168-0.793-0.277-1.2c-0.109-0.408-0.238-0.822-0.381-1.242l0,0l-0.008-0.027h-0.004
		c-0.375-1.092-0.811-2.074-1.305-2.944c-0.492-0.867-1.047-1.636-1.662-2.298c-0.822-0.881-1.715-1.561-2.67-2.034
		c-0.187-0.095-0.371-0.181-0.562-0.255c-0.201-0.081-0.394-0.151-0.574-0.211v0.002l-0.006-0.002
		c-1.032-0.327-2.071-0.416-3.11-0.266c-0.203,0.029-0.412,0.068-0.623,0.119l0,0c-0.211,0.051-0.42,0.108-0.627,0.178l0,0
		l-0.107,0.035v0.002c-1.307,0.449-2.354,1.125-3.148,2.025c-0.794,0.899-1.34,2.037-1.639,3.407
		c-0.365,1.677-0.348,3.488,0.055,5.433c0.078,0.379,0.172,0.766,0.281,1.158C249.518,444.026,249.643,444.424,249.786,444.842
		L249.786,444.842L249.786,444.842z M252.127,444.104c0.428,1.242,0.941,2.298,1.539,3.156c0.588,0.849,1.258,1.508,2.008,1.982l0,0
		l0.008,0.006l0.004,0.002c0.209,0.131,0.422,0.252,0.633,0.355c0.207,0.104,0.416,0.19,0.627,0.268h0.003
		c1.055,0.375,2.116,0.381,3.182,0.014c0.935-0.317,1.673-0.813,2.216-1.479c0.551-0.674,0.911-1.535,1.086-2.582l0.002-0.012
		c0.039-0.234,0.069-0.48,0.092-0.732c0.021-0.262,0.033-0.514,0.033-0.756c0.008-1.32-0.256-2.748-0.783-4.281h0.002v-0.002
		l-0.002-0.002c-0.094-0.266-0.18-0.504-0.264-0.713c-0.091-0.229-0.188-0.453-0.289-0.678c-0.513-1.121-1.136-2.103-1.861-2.937
		v0.002l-0.004-0.006l-0.01-0.01c-0.103-0.117-0.207-0.23-0.316-0.338c-0.105-0.104-0.215-0.205-0.33-0.306
		c-0.576-0.494-1.227-0.856-1.938-1.09c-0.525-0.168-1.045-0.252-1.556-0.25c-0.504,0.002-1.008,0.092-1.512,0.267h-0.007
		l-0.006,0.002l-0.006,0.002c-0.266,0.092-0.522,0.2-0.771,0.328c-0.24,0.12-0.463,0.258-0.67,0.405
		c-1.06,0.769-1.697,1.91-1.914,3.433l0,0c-0.119,0.85-0.115,1.766,0.019,2.75C251.471,441.893,251.732,442.961,252.127,444.104
		L252.127,444.104z M252.902,447.79c-0.646-0.932-1.198-2.062-1.653-3.385c-0.41-1.191-0.688-2.318-0.83-3.383
		c-0.144-1.068-0.146-2.068-0.017-2.998v-0.002c0.255-1.781,1.019-3.134,2.287-4.054c0.248-0.178,0.515-0.34,0.795-0.481
		c0.271-0.142,0.572-0.269,0.896-0.379l0.004-0.002l0.006-0.003v-0.002c0.594-0.202,1.197-0.309,1.812-0.311
		c0.608-0.002,1.223,0.096,1.842,0.295c0.834,0.27,1.588,0.691,2.258,1.266c0.128,0.109,0.257,0.229,0.382,0.354
		c0.118,0.117,0.235,0.242,0.352,0.373l0,0l0.004,0.004l0.01,0.012c0.791,0.902,1.465,1.961,2.018,3.17
		c0.104,0.23,0.209,0.474,0.308,0.722c0.106,0.268,0.201,0.52,0.28,0.752h-0.002l0.002,0.002l0.003,0.004
		c0.559,1.625,0.836,3.154,0.829,4.586c0,0.293-0.014,0.57-0.034,0.828c-0.021,0.268-0.058,0.537-0.104,0.809l-0.002,0.012
		c-0.199,1.207-0.627,2.214-1.279,3.015c-0.657,0.809-1.534,1.399-2.635,1.776c-1.268,0.438-2.535,0.433-3.795-0.02l0,0
		c-0.24-0.086-0.482-0.189-0.727-0.309c-0.238-0.119-0.479-0.254-0.717-0.404v-0.002l-0.008-0.004l-0.004-0.002
		C254.32,449.483,253.563,448.737,252.902,447.79z M285.754,432.782l2.463-0.478l0.418-0.08l0.117,0.412l0.01,0.035
		c0.084,0.301,0.162,0.605,0.23,0.916c0.064,0.297,0.123,0.594,0.168,0.889c0.238,1.503,0.195,2.878-0.129,4.119l-0.002,0.006v0.005
		l0,0c-0.074,0.28-0.166,0.555-0.271,0.817c-0.104,0.267-0.225,0.521-0.356,0.771c-0.684,1.264-1.732,2.272-3.152,3.028h-0.004
		l-0.012,0.006h0.002c-0.432,0.229-0.863,0.416-1.299,0.568c-0.438,0.15-0.873,0.26-1.312,0.33c-2.235,0.357-4.44-0.348-6.61-2.117
		h-0.002c-0.793-0.639-1.533-1.395-2.226-2.27c-0.688-0.871-1.322-1.861-1.91-2.967l0,0l-0.01-0.019l-0.002-0.004
		c-0.314-0.596-0.597-1.186-0.843-1.768c-0.246-0.589-0.45-1.154-0.616-1.703c-0.869-2.894-0.699-5.455,0.514-7.685v-0.002
		c0.396-0.719,0.879-1.354,1.447-1.914c0.565-0.559,1.221-1.03,1.954-1.424h0.003l0.014-0.006c0.242-0.129,0.488-0.244,0.738-0.35
		c0.25-0.104,0.5-0.189,0.746-0.265c1.284-0.383,2.575-0.381,3.864,0.002l0,0c0.806,0.234,1.582,0.607,2.33,1.115
		c0.74,0.506,1.455,1.145,2.144,1.918l0.295,0.332l-0.317,0.309l-1.746,1.693l-0.343,0.33l-0.321-0.35
		c-1.013-1.099-2.011-1.783-2.99-2.06c-0.947-0.266-1.896-0.145-2.852,0.363c-1.007,0.535-1.724,1.24-2.15,2.115
		c-0.434,0.885-0.582,1.961-0.445,3.225l0,0l0.002,0.014c0.021,0.189,0.049,0.375,0.082,0.563c0.033,0.186,0.078,0.381,0.129,0.588
		c0.258,1.033,0.713,2.164,1.363,3.387l0,0v0.002v0.002c0.146,0.277,0.305,0.56,0.473,0.843c0.16,0.271,0.322,0.528,0.484,0.774
		c0.834,1.262,1.725,2.242,2.672,2.939v0.002l0.016,0.01l0,0c0.238,0.176,0.48,0.33,0.725,0.465c0.484,0.269,0.97,0.445,1.449,0.533
		c0.957,0.174,1.935-0.002,2.922-0.527c0.601-0.317,1.082-0.721,1.441-1.203c0.361-0.481,0.607-1.055,0.738-1.715l0,0l0.004-0.014
		c0.031-0.164,0.057-0.326,0.072-0.482c0.018-0.168,0.027-0.338,0.031-0.504c0.021-0.889-0.146-1.867-0.494-2.93l-0.164-0.5
		L285.754,432.782L285.754,432.782z M287.969,433.301l-1.531,0.295c0.275,0.972,0.404,1.883,0.386,2.734
		c-0.005,0.201-0.019,0.396-0.035,0.582c-0.021,0.199-0.05,0.387-0.084,0.563l-0.002,0.017v0.002
		c-0.16,0.797-0.461,1.492-0.906,2.088c-0.444,0.596-1.028,1.084-1.752,1.469c-1.176,0.625-2.353,0.832-3.522,0.617
		c-0.584-0.104-1.16-0.316-1.729-0.631c-0.272-0.15-0.549-0.326-0.824-0.529l-0.002-0.002l-0.017-0.01l0,0
		c-1.036-0.764-2.004-1.824-2.896-3.176c-0.174-0.263-0.344-0.533-0.51-0.814c-0.158-0.268-0.322-0.561-0.49-0.877l0,0l-0.002-0.004
		l-0.002-0.002c-0.687-1.287-1.166-2.488-1.442-3.598c-0.054-0.211-0.101-0.429-0.142-0.646c-0.039-0.215-0.069-0.424-0.094-0.627
		l-0.002-0.014v-0.002c-0.154-1.439,0.022-2.687,0.536-3.732c0.519-1.057,1.367-1.9,2.548-2.527
		c1.172-0.623,2.352-0.768,3.536-0.436c1.039,0.291,2.07,0.949,3.095,1.979l1.088-1.055c-0.545-0.57-1.103-1.051-1.672-1.438
		c-0.67-0.455-1.358-0.787-2.065-0.992h-0.003c-1.114-0.332-2.229-0.332-3.342-0.002c-0.222,0.063-0.438,0.143-0.655,0.229
		c-0.216,0.09-0.437,0.193-0.658,0.313l-0.015,0.006l0.002,0.002c-0.659,0.35-1.241,0.771-1.741,1.264
		c-0.502,0.49-0.931,1.06-1.281,1.699h-0.002c-1.088,2-1.232,4.324-0.438,6.973c0.16,0.529,0.354,1.066,0.582,1.609
		c0.229,0.545,0.498,1.107,0.808,1.689l0.012,0.021l0.002,0.002c0.563,1.058,1.168,2,1.818,2.826
		c0.647,0.82,1.342,1.529,2.075,2.121l0.003,0.002c1.956,1.596,3.92,2.236,5.887,1.922c0.383-0.061,0.768-0.158,1.149-0.291
		c0.386-0.133,0.772-0.303,1.168-0.512h0.002l0.011-0.006V442.4c1.256-0.666,2.18-1.552,2.771-2.648
		c0.115-0.213,0.219-0.436,0.31-0.666c0.094-0.229,0.172-0.471,0.237-0.721l0.002-0.002l0,0l0,0
		c0.291-1.119,0.328-2.369,0.111-3.746c-0.043-0.271-0.097-0.547-0.158-0.83C288.053,433.631,288.012,433.467,287.969,433.301
		L287.969,433.301z M294.754,437.249l-11.961-18.418l-0.252-0.389l0.389-0.255l1.998-1.297l0.391-0.252l0.252,0.39l4.66,7.176
		l7.072-4.594l-4.658-7.177l-0.254-0.391l0.392-0.252l1.997-1.297l0.39-0.254l0.252,0.389l11.961,18.42l0.252,0.39l-0.389,0.252
		l-1.998,1.299l-0.39,0.252l-0.252-0.392l-5.385-8.288l-7.074,4.594l5.386,8.291l0.252,0.389l-0.39,0.254l-1.998,1.297l-0.391,0.252
		L294.754,437.249L294.754,437.249z M283.825,418.715l11.454,17.642l1.222-0.794l-5.385-8.291l-0.253-0.389l0.39-0.252l7.854-5.1
		l0.389-0.252l0.252,0.389l5.385,8.289l1.222-0.791l-11.456-17.643l-1.223,0.795l4.66,7.174l0.254,0.389l-0.391,0.254l-7.852,5.099
		l-0.39,0.254l-0.254-0.39l-4.658-7.176L283.825,418.715L283.825,418.715z M310.854,426.096l-13.819-17.063l-0.291-0.361
		l0.356-0.291l1.854-1.5l0.358-0.291l0.291,0.359l13.82,17.063l0.291,0.361l-0.356,0.291l-1.854,1.5l-0.359,0.291L310.854,426.096
		L310.854,426.096z M298.043,408.807l13.238,16.349l1.131-0.916l-13.236-16.351L298.043,408.807L298.043,408.807z M321.333,417.692
		l-16.063-14.979l-0.34-0.316l0.316-0.34l2.443-2.621l0.241-0.26l0.313,0.166l15.715,8.271l-1.01-1.644v-0.002l-8.23-13.575
		l-0.182-0.302l0.238-0.256l2.186-2.345l0.316-0.34l0.34,0.314l16.061,14.979l0.34,0.315l-0.313,0.338l-1.563,1.679l-0.315,0.338
		l-0.34-0.314l-11.015-10.271l8.154,13.522l0.182,0.301l-0.237,0.259l-1.461,1.563l-0.24,0.258l-0.313-0.159l-14.223-7.375
		l11.193,10.438l0.34,0.316l-0.316,0.34l-1.561,1.674l-0.318,0.34L321.333,417.692L321.333,417.692z M306.243,402.352l15.383,14.345
		l0.93-0.996l-13.332-12.435l0.527-0.752l16.918,8.773l0.982-1.053l-9.689-16.07l0.713-0.578l13.105,12.221l0.93-0.998
		l-15.383-14.344l-1.631,1.75l8.047,13.271l0,0l1.897,3.084l-0.61,0.651l-16.9-8.895L306.243,402.352L306.243,402.352z
		 M336.819,401.247l-17.308-13.521l-0.364-0.285l0.284-0.365l1.468-1.877l0.284-0.365l0.365,0.285l17.308,13.521l0.362,0.285
		l-0.285,0.363l-1.467,1.879l-0.285,0.365L336.819,401.247z M320.448,387.279l16.576,12.949l0.895-1.146l-16.574-12.949
		L320.448,387.279z M341.415,395.477l-17.99-12.596l-0.379-0.266l0.264-0.379l1.402-2.002l0.158-0.228l0.271,0.029l17.759,1.938
		l-12.646-8.854l-0.379-0.266l0.266-0.379l1.306-1.863l0.266-0.379l0.381,0.264l17.988,12.598l0.379,0.266l-0.264,0.38l-1.396,1.993
		l-0.158,0.226l-0.27-0.028l-17.771-1.953l12.658,8.86l0.379,0.267l-0.266,0.381l-1.313,1.875l-0.268,0.381L341.415,395.477
		L341.415,395.477z M324.334,382.387l17.23,12.066l0.78-1.119l-13.76-9.635l0.314-0.84l19.295,2.121l0.973-1.39l-17.229-12.063
		l-0.773,1.104l13.744,9.623l-0.314,0.842l-19.281-2.104L324.334,382.387L324.334,382.387z M352.5,379.676l-19.566-9.971
		l-0.414-0.211l0.212-0.414l1.081-2.123l0.212-0.414l0.413,0.211l7.621,3.885l3.828-7.514l-7.621-3.885l-0.414-0.211l0.211-0.414
		l1.082-2.123l0.212-0.414l0.411,0.211l19.568,9.971l0.414,0.211l-0.211,0.414l-1.082,2.123l-0.211,0.414l-0.414-0.211l-8.807-4.488
		l-3.828,7.516l8.807,4.486l0.414,0.211l-0.211,0.414l-1.082,2.123l-0.211,0.414L352.5,379.676L352.5,379.676z M333.77,369.088
		l18.738,9.549l0.66-1.295l-8.807-4.488l-0.414-0.211l0.211-0.414l4.25-8.342l0.211-0.414l0.414,0.211l8.807,4.488l0.66-1.295
		l-18.74-9.549l-0.658,1.295l7.621,3.885l0.414,0.211l-0.211,0.414l-4.25,8.342l-0.211,0.414l-0.414-0.211l-7.623-3.885
		L333.77,369.088z"/>
	<path fill="#DA251D" d="M78.69,192.006l8.083,5.873l1.163-1.602l1.601,1.164l-1.163,1.602l8.083,5.873l-3.655,5.029
		c-0.892,1.229-1.685,2.094-2.385,2.596c-1.832,1.313-4.182,1.469-7.061,0.463c-1.407-0.49-2.89-1.303-4.45-2.437
		c-3.384-2.458-5.284-4.983-5.701-7.567c-0.191-1.138-0.1-2.246,0.268-3.326c0.205-0.604,0.667-1.405,1.397-2.41L78.69,192.006
		L78.69,192.006z M79.387,195.458l-2.254,3.104c-0.826,1.138-1.3,2.146-1.42,3.025c-0.143,1.016,0.138,2.072,0.846,3.168
		c0.881,1.354,2.149,2.635,3.804,3.838c3.442,2.5,6.197,3.162,8.261,1.982c0.591-0.336,1.295-1.068,2.118-2.203l2.218-3.053
		l-5.985-4.35l-2.921,4.021l-1.601-1.162l2.921-4.021L79.387,195.458L79.387,195.458z M77.266,212.875
		c2.696,1.558,4.642,3.424,5.831,5.6c1.427,2.602,1.411,5.165-0.052,7.697c-0.844,1.461-2.027,2.521-3.547,3.178
		c-1.416,0.611-3,0.83-4.749,0.646c-1.869-0.199-3.82-0.889-5.861-2.066c-2.821-1.629-4.749-3.598-5.781-5.9
		c-1.139-2.535-1.052-4.947,0.265-7.229c1.324-2.293,3.398-3.563,6.217-3.813C72.137,210.766,74.697,211.393,77.266,212.875
		L77.266,212.875z M75.999,214.979c-2.352-1.357-4.468-1.895-6.352-1.607c-1.882,0.284-3.257,1.172-4.116,2.66
		c-1.074,1.86-1.014,3.76,0.182,5.708c0.951,1.563,2.436,2.931,4.451,4.093c1.634,0.943,3.253,1.524,4.846,1.741
		c1.182,0.163,2.296,0.021,3.338-0.423c1.105-0.473,1.944-1.209,2.525-2.215c1.122-1.944,1.056-3.895-0.204-5.846
		C79.691,217.583,78.137,216.213,75.999,214.979L75.999,214.979z M58.905,224.497l17.771,14.643l-0.959,2.375l-23.124-1.391
		l1.021-2.527l6.953,0.548l2.816-6.97l-5.425-4.33L58.905,224.497L58.905,224.497z M65.322,232.693l-2.285,5.656l6.337,0.542
		c1.811,0.158,3.378,0.333,4.701,0.525c-1.285-0.789-2.464-1.613-3.528-2.473L65.322,232.693L65.322,232.693z M76.743,242.849
		l0.559-1.384l4.748-1.992l-1.027,2.541L76.743,242.849z M51.659,242.59l21.11,6.053l-0.674,2.351l-19.182,4.346l16.573,4.752
		l-0.627,2.188l-21.11-6.053l0.671-2.341l19.201-4.334l-16.593-4.758L51.659,242.59L51.659,242.59z M44.912,270.952l19.181,2.694
		l0.826-5.873l2.567,0.361l-1.987,14.137l-2.567-0.36l0.83-5.902l-19.18-2.696L44.912,270.952L44.912,270.952z M43.769,283.219
		l21.948,0.768l-0.083,2.382l-9.014-0.313l-0.327,9.354l9.014,0.313l-0.083,2.381l-21.948-0.766l0.083-2.383l10.343,0.361
		l0.327-9.355L43.686,285.6L43.769,283.219z M43.406,300.579l22.39,5.369l0.179,2.557l-21.393,8.888l-0.19-2.72l6.49-2.555
		l-0.524-7.498l-6.774-1.519L43.406,300.579L43.406,300.579z M52.766,305.133l0.425,6.084l5.935-2.291
		c1.697-0.65,3.182-1.182,4.456-1.588c-1.502-0.145-2.922-0.369-4.255-0.676L52.766,305.133z M45.3,320.252l21.627-3.814
		l0.425,2.406l-15.336,12.314l16.979-2.992l0.396,2.24l-21.627,3.813l-0.423-2.396l15.357-12.313l-17,2.996L45.3,320.252
		L45.3,320.252z M49.439,338.961l20.886-6.787l0.736,2.266l-8.578,2.787l2.893,8.904l8.578-2.787l0.736,2.268l-20.886,6.785
		l-0.736-2.266l9.843-3.199l-2.894-8.902l-9.842,3.197L49.439,338.961L49.439,338.961z M57.761,362.413l19.567-9.972l1.109,2.179
		l-11.065,16.262l15.362-7.827l1.034,2.026l-19.568,9.97l-1.105-2.17l11.086-16.266l-15.38,7.838L57.761,362.413L57.761,362.413z
		 M66.954,379.954l18.624-11.638l1.263,2.021l-18.624,11.638L66.954,379.954z M71.187,386.299l17.99-12.596l7.467,10.662
		l-2.124,1.486l-6.1-8.711l-5.508,3.854l5.713,8.159l-2.111,1.479l-5.713-8.159l-6.124,4.286l6.341,9.058l-2.124,1.485
		L71.187,386.299L71.187,386.299z M97.352,377.286l-1.671,4.041l-0.9-1.287l0.789-2.947l-3.023-0.243l-0.904-1.289l4.369-0.188
		L97.352,377.286z M81.715,400.526l16.823-14.115l1.571,1.871l-7.124,18.334l13.208-11.082l1.462,1.742l-16.823,14.114l-1.564-1.862
		l7.143-18.345l-13.224,11.099L81.715,400.526L81.715,400.526z M113.76,420.776l1.4,2.082c-1.746,1.407-3.465,2.237-5.155,2.489
		c-1.945,0.273-3.738-0.252-5.375-1.578c-2.591-2.098-3.372-4.928-2.339-8.483c0.536-1.892,1.576-3.783,3.118-5.688
		c3.002-3.707,6.172-5.403,9.507-5.078c1.543,0.158,2.927,0.732,4.155,1.728c1.466,1.188,2.3,2.652,2.497,4.391
		c0.187,1.566-0.149,3.248-1.003,5.052l-2.241-0.945c1.301-2.883,1.019-5.076-0.852-6.594c-1.924-1.558-4.073-1.673-6.45-0.349
		c-1.219,0.687-2.458,1.801-3.706,3.342c-1.516,1.873-2.475,3.644-2.87,5.31c-0.53,2.223,0.043,4.01,1.712,5.358
		c1.165,0.943,2.47,1.265,3.926,0.964C111.303,422.518,112.532,421.854,113.76,420.776L113.76,420.776z M119.278,421.184
		c1.696-2.61,3.662-4.457,5.896-5.528c2.672-1.289,5.232-1.14,7.686,0.455c1.415,0.918,2.41,2.155,2.987,3.707
		c0.537,1.444,0.672,3.039,0.398,4.776c-0.297,1.855-1.088,3.769-2.372,5.744c-1.774,2.732-3.841,4.555-6.194,5.465
		c-2.592,1.004-4.996,0.791-7.204-0.643c-2.222-1.443-3.382-3.58-3.484-6.408C116.902,426.194,117.663,423.67,119.278,421.184
		L119.278,421.184z M121.312,422.559c-1.479,2.277-2.126,4.363-1.938,6.261c0.185,1.895,1,3.313,2.441,4.25
		c1.801,1.17,3.702,1.209,5.71,0.114c1.612-0.864,3.053-2.276,4.32-4.229c1.027-1.582,1.692-3.168,1.992-4.748
		c0.224-1.172,0.141-2.293-0.248-3.355c-0.414-1.129-1.106-2.006-2.08-2.637c-1.883-1.223-3.834-1.258-5.848-0.104
		C124.105,419.008,122.656,420.487,121.312,422.559L121.312,422.559z M136.136,412.969l-0.033,4.369l-1.32-0.856l-0.374-3.029
		l-2.894,0.906l-1.316-0.854l3.978-1.807L136.136,412.969z M116.924,438.75l1.688-2.6l1.848,1.198l-1.688,2.601L116.924,438.75
		L116.924,438.75z M131.338,441.299l9.281-19.904l2.215,1.033l1.291,19.627l7.288-15.627l2.063,0.961l-9.281,19.904l-2.206-1.029
		l-1.278-19.643l-7.295,15.645L131.338,441.299L131.338,441.299z M159.977,444.04l0.844-2.451l7.208,2.48l-2.653,7.707
		c-2.963,1.396-5.69,1.67-8.186,0.811c-3.495-1.203-5.447-3.699-5.869-7.488c-0.205-1.854,0.078-3.897,0.848-6.139
		c0.674-1.953,1.594-3.637,2.768-5.049c1.391-1.668,2.958-2.719,4.712-3.146c1.515-0.377,3.112-0.274,4.794,0.306
		c2.471,0.85,4.027,2.377,4.667,4.569c0.3,1.062,0.351,2.392,0.149,3.979l-2.26-0.019c0.229-2.172-0.201-3.813-1.304-4.916
		c-0.571-0.567-1.282-0.997-2.12-1.284c-2.484-0.855-4.683-0.24-6.597,1.85c-0.994,1.08-1.81,2.533-2.435,4.352
		c-0.808,2.347-1.008,4.394-0.612,6.146c0.483,2.131,1.825,3.576,4.024,4.334c0.851,0.293,1.814,0.396,2.897,0.313
		c1.078-0.081,2.008-0.336,2.789-0.764l1.332-3.869L159.977,444.04L159.977,444.04z M174.911,449.75l2.254,0.193
		c-0.199,2.18,0.375,3.803,1.736,4.866c0.7,0.556,1.529,0.925,2.503,1.111c1.245,0.242,2.321,0.146,3.229-0.289
		c1.021-0.481,1.648-1.324,1.883-2.529c0.246-1.266-0.128-2.315-1.127-3.149c-0.518-0.424-1.652-1.094-3.413-2.002
		c-1.271-0.67-2.196-1.246-2.772-1.732c-0.888-0.74-1.47-1.635-1.757-2.676c-0.252-0.85-0.284-1.758-0.096-2.721
		c0.354-1.822,1.229-3.158,2.623-4.008c1.354-0.837,2.948-1.072,4.78-0.718c2.705,0.525,4.422,1.9,5.146,4.131
		c0.388,1.169,0.456,2.369,0.218,3.597l-2.289-0.232c0.301-2.801-0.863-4.453-3.488-4.965c-1.148-0.223-2.135-0.164-2.95,0.178
		c-0.952,0.396-1.533,1.136-1.745,2.226c-0.21,1.078,0.087,1.983,0.893,2.721c0.42,0.383,1.301,0.914,2.637,1.58
		c1.673,0.824,2.815,1.479,3.436,1.965c1.958,1.531,2.698,3.535,2.217,6.014c-0.234,1.205-0.725,2.25-1.464,3.136
		c-0.769,0.928-1.716,1.565-2.835,1.91c-1.121,0.352-2.383,0.389-3.788,0.112c-2.184-0.424-3.802-1.422-4.852-2.989
		C174.809,453.866,174.481,451.958,174.911,449.75L174.911,449.75z M189.933,459.526l8.806-21.275l2.553,0.223l5.431,22.521
		l-2.714-0.236l-1.51-6.811l-7.486-0.654l-2.557,6.453L189.933,459.526L189.933,459.526z M195.895,450.991l6.077,0.531l-1.334-6.22
		c-0.378-1.776-0.669-3.328-0.871-4.647c-0.379,1.461-0.822,2.828-1.333,4.096L195.895,450.991z M199.538,436.698
		c0.153-1.769,2.922-2.562,1.742-4.066c-0.23-0.297-0.535-0.463-0.91-0.496c-0.847-0.071-1.414,0.379-1.716,1.359l-1.161-0.104
		c0.17-1.93,1.541-3.172,3.926-2.573c1.492,0.37,2.356,1.276,2.117,2.803c-0.207,1.301-2.07,1.582-2.591,3.139L199.538,436.698
		L199.538,436.698z M209.665,460.688l-0.767-21.944l2.442-0.086l10.062,16.897l-0.603-17.229l2.275-0.08l0.766,21.947l-2.432,0.086
		l-10.057-16.922l0.602,17.252L209.665,460.688L209.665,460.688z M234.633,458.85l-4.189-21.557l2.341-0.455l1.721,8.854
		l9.188-1.787l-1.723-8.854l2.342-0.455l4.188,21.56l-2.338,0.455l-1.976-10.16l-9.19,1.787l1.976,10.157L234.633,458.85
		L234.633,458.85z M249.352,445.01c-1.014-2.942-1.258-5.629-0.729-8.051c0.629-2.898,2.324-4.824,5.09-5.775
		c1.596-0.551,3.184-0.569,4.762-0.069c1.471,0.467,2.812,1.342,4.01,2.627c1.279,1.377,2.3,3.178,3.066,5.403
		c1.061,3.08,1.225,5.83,0.492,8.246c-0.805,2.66-2.451,4.425-4.941,5.281c-2.504,0.861-4.901,0.461-7.192-1.201
		C251.836,449.967,250.316,447.815,249.352,445.01L249.352,445.01z M251.688,444.254c0.886,2.568,2.129,4.361,3.738,5.381
		c1.607,1.021,3.229,1.252,4.854,0.691c2.029-0.699,3.23-2.172,3.605-4.426c0.311-1.808,0.084-3.812-0.674-6.011
		c-0.613-1.782-1.455-3.282-2.514-4.491c-0.785-0.898-1.721-1.523-2.797-1.871c-1.146-0.369-2.262-0.363-3.359,0.016
		c-2.123,0.73-3.352,2.246-3.68,4.543C250.609,439.868,250.883,441.918,251.688,444.254L251.688,444.254z M253.254,426.665
		l3.426,2.725l-1.488,0.515l-2.619-1.576l-1.063,2.844l-1.481,0.512l1.021-4.256L253.254,426.665L253.254,426.665z M257.932,425.989
		l-1.416,0.485l-4.615-2.27l2.593-0.896L257.932,425.989L257.932,425.989z M285.842,433.239l2.463-0.478
		c0.615,2.156,0.707,4.064,0.277,5.718c-0.508,1.897-1.691,3.346-3.551,4.334c-2.943,1.563-5.855,1.178-8.727-1.162
		c-1.529-1.232-2.865-2.933-4.017-5.095c-2.24-4.213-2.563-7.793-0.961-10.733c0.748-1.359,1.817-2.408,3.213-3.15
		c1.666-0.887,3.34-1.08,5.021-0.584c1.514,0.441,2.93,1.408,4.256,2.898l-1.746,1.69c-2.146-2.321-4.275-2.922-6.402-1.791
		c-2.186,1.162-3.131,3.097-2.84,5.802c0.154,1.391,0.697,2.967,1.629,4.719c1.131,2.125,2.385,3.699,3.764,4.715
		c1.84,1.355,3.707,1.525,5.604,0.52c1.323-0.702,2.129-1.78,2.42-3.237C286.484,436.18,286.354,434.79,285.842,433.239
		L285.842,433.239z M295.143,436.997l-11.961-18.418l1.998-1.299l4.912,7.563l7.854-5.1l-4.911-7.564l1.998-1.297l11.961,18.418
		l-1.998,1.297l-5.638-8.68l-7.854,5.1l5.637,8.681L295.143,436.997L295.143,436.997z M311.213,425.805l-13.822-17.065l1.854-1.5
		l13.82,17.065L311.213,425.805z M298.348,400.68l-0.598,5.763l-1.305,1.057l-0.498-4.873L298.348,400.68L298.348,400.68z
		 M321.647,417.35l-16.063-14.977l2.445-2.621l17.215,9.063l-1.898-3.087l-8.229-13.574l2.188-2.346l16.063,14.979l-1.564,1.676
		l-13.44-12.537l9.868,16.369l-1.463,1.566l-17.229-8.937l13.672,12.75L321.647,417.35L321.647,417.35z M337.102,400.881
		l-17.305-13.521l1.467-1.877l17.308,13.521L337.102,400.881z M341.678,395.098L323.69,382.5l1.399-2.002l19.553,2.137
		l-14.123-9.889l1.306-1.863l17.99,12.596l-1.396,1.994l-19.566-2.152l14.142,9.9L341.678,395.098L341.678,395.098z
		 M352.711,379.262l-19.568-9.971l1.082-2.123l8.037,4.096l4.25-8.342l-8.037-4.096l1.082-2.123l19.568,9.971l-1.082,2.123
		l-9.221-4.699l-4.252,8.344l9.223,4.697L352.711,379.262z"/>
</g>
<g id="Tay_ao">
	<polygon fill="#DA251D" points="190.184,306.045 186.075,314.133 194.272,313.639 	"/>
	<polygon fill="#FFFFFF" points="357.415,271.768 336.024,280.256 308.305,262.346 331.313,257.422 360.364,256.948 	"/>
	<path fill="#005D35" d="M315.075,279.816c19.121,7.509,27.418,22.185,31.397,45.205c-1.19,7.129-2.727,7.556-7.766,13.89
		c-1.254,1.575-8.531,4.887-13.285,5.848l11.994,5.484c2.957-0.589,7.209-3.382,10.766-7.043c2.396-2.466,7.58-8.849,8.978-13.205
		c-0.15-1.373,0.006-7.693-0.08-10.703c0.873-0.621,1.674-1.406,3.533-2.543l1.131,19.004l-10.168,14.269l16.668-0.363
		c1.58-4.045,4.521-9.459,6.188-14.502c0.914-4.826,2.455-11.314,2.722-17.812c-5.281-16.473-12.39-29.038-23.023-38.946
		c-6.723-6.265-18.389-12.644-32.066-17.041c-3.563,0.678-8.848,2.049-13.729,3.43l-6.484,11.299
		C305.631,276.309,310.329,277.704,315.075,279.816L315.075,279.816z M335.987,262.189c24.172,7.31,42.862,33.902,47.17,57.695
		c0.137,3.555-1.224,7.227-1.849,11.01c-1.739,7.894-1.819,7.578-3.612,12.402c4.065-1.006,8.231-1.711,12.35-3.012
		c0.064-0.055,0.121-0.105,0.164-0.158c5.479-8.168,9.027-28.357,10.502-46.395c-7.719-18.724-24.248-32.051-45.41-35.334
		c-2.207-0.342-4.461-0.209-4.461-0.209C345.151,259.561,342.254,260.586,335.987,262.189L335.987,262.189z"/>
	<path fill="#FFFFFF" d="M337.375,326.331c-0.648,3.271-1.295,6.541-1.941,9.812c-3.469,2.657-4.021,5.061-12.827,8.844l9.116,7.164
		l7.431,0.385c-2.535-2.768-4.451-4.859-6.986-7.627c2.973-1.838,6.896-6.691,9.736-9.859l0.944-10.58L337.375,326.331
		L337.375,326.331z"/>
	<path fill="#FFFFFF" d="M323.467,284.295c-7.178-4.5-15.567-7.854-21.621-8.211l8.084-14.086l-8.303,2.438
		c-2.371,3.91-6.318,9.89-9.854,14.896c12.348,0.19,17.84,2.957,24.024,5.662C317.223,284.066,322.043,285.221,323.467,284.295
		L323.467,284.295z"/>
</g>
</svg>
