<?xml version="1.0" encoding="UTF-8" standalone="no"?>
<svg
   xmlns:dc="http://purl.org/dc/elements/1.1/"
   xmlns:cc="http://creativecommons.org/ns#"
   xmlns:rdf="http://www.w3.org/1999/02/22-rdf-syntax-ns#"
   xmlns:svg="http://www.w3.org/2000/svg"
   xmlns="http://www.w3.org/2000/svg"
   xmlns:sodipodi="http://sodipodi.sourceforge.net/DTD/sodipodi-0.dtd"
   xmlns:inkscape="http://www.inkscape.org/namespaces/inkscape"
   sodipodi:docname="Logo TNVN.svg"
   inkscape:version="1.0 (4035a4fb49, 2020-05-01)"
   id="svg8"
   version="1.1"
   viewBox="0 0 156.10416 156.10417"
   height="590"
   width="590">
  <defs
     id="defs2" />
  <sodipodi:namedview
     inkscape:window-maximized="1"
     inkscape:window-y="-8"
     inkscape:window-x="-8"
     inkscape:window-height="815"
     inkscape:window-width="1600"
     units="px"
     showgrid="false"
     inkscape:document-rotation="0"
     inkscape:current-layer="layer1"
     inkscape:document-units="mm"
     inkscape:cy="220.44364"
     inkscape:cx="759.52169"
     inkscape:zoom="0.5"
     inkscape:pageshadow="2"
     inkscape:pageopacity="0.0"
     borderopacity="1.0"
     bordercolor="#666666"
     pagecolor="#ffffff"
     id="base" />
  <metadata
     id="metadata5">
    <rdf:RDF>
      <cc:Work
         rdf:about="">
        <dc:format>image/svg+xml</dc:format>
        <dc:type
           rdf:resource="http://purl.org/dc/dcmitype/StillImage" />
        <dc:title></dc:title>
      </cc:Work>
    </rdf:RDF>
  </metadata>
  <g
     id="layer1"
     inkscape:groupmode="layer"
     inkscape:label="Lớp 1">
    <circle
       r="77.631577"
       cy="77.712761"
       cx="77.712761"
       id="path847"
       style="fill:#ffffff;stroke:#fffff1;stroke-width:0.162368;stroke-opacity:0" />
    <g
       transform="translate(139.2975,-38.139227)"
       id="g964">
      <path
         id="path867"
         style="fill:#0091db;stroke-width:0.999999"
         transform="scale(0.26458333)"
         d="m -232.45703,143.44336 c -0.3474,-0.0143 -0.74258,0.0489 -1.10352,0.19336 -0.79773,0.31923 -0.56143,0.55747 0.60352,0.60547 1.05417,0.0434 1.64479,-0.1931 1.3125,-0.52539 -0.16615,-0.16615 -0.4651,-0.25913 -0.8125,-0.27344 z m 22,1 c -0.3474,-0.0143 -0.74258,0.0489 -1.10352,0.19336 -0.79773,0.31923 -0.56143,0.55747 0.60352,0.60547 1.05417,0.0434 1.64479,-0.1931 1.3125,-0.52539 -0.16615,-0.16615 -0.4651,-0.25913 -0.8125,-0.27344 z m -20.52539,13.00586 c -24.34487,-0.0957 -48.8051,3.0469 -73.23633,9.43164 -96.08885,25.11139 -174.47813,103.48886 -199.58398,199.55469 -12.8524,49.1787 -12.66662,96.77784 0.57031,146.13476 l 2.07812,7.75 h 176.15235 176.15429 l 3.86719,-8.71484 c 14.68105,-33.07858 20.22492,-58.84731 19.31836,-89.78516 -0.58692,-20.03093 -2.00569,-28.68774 -9.42773,-57.5 -13.07112,-50.7418 -14.41286,-58.15755 -14.38868,-79.5 0.0255,-22.5853 3.61493,-39.86734 12.71875,-61.24023 4.68004,-10.98727 13.33772,-27.26653 18.70118,-35.16211 2.85293,-4.19986 2.90636,-4.46406 1.15039,-5.74805 -2.49778,-1.8264 -20.92451,-8.98718 -31.96485,-12.42187 -27.07639,-8.42357 -54.51852,-12.69033 -82.10937,-12.79883 z m 12.67773,46.87109 c 0.33736,0 2.06469,4.725 3.83789,10.5 l 3.22461,10.5 11.6836,0.0293 11.68554,0.0293 -3.03711,2.7207 c -1.66978,1.49637 -5.62226,4.9707 -8.7832,7.7207 l -5.74609,5 3.09961,9.84961 c 1.70482,5.41757 2.89555,10.05367 2.64648,10.30274 -0.24907,0.24906 -4.38411,-2.29626 -9.18945,-5.65821 -4.80535,-3.36195 -9.34722,-5.87828 -10.09375,-5.59179 -0.74654,0.28647 -5.40028,3.23724 -10.33985,6.55859 -4.93956,3.32135 -9.21266,6.03906 -9.49609,6.03906 -0.28342,0 1.31464,-5.21027 3.55078,-11.57812 2.23614,-6.36785 3.91289,-11.70457 3.72656,-11.85938 -0.18632,-0.1548 -4.83426,-3.26953 -10.33007,-6.92187 l -9.99219,-6.64063 10.99219,-0.0137 c 6.04581,-0.008 11.93601,-0.26835 13.08984,-0.57812 1.6167,-0.43402 2.87375,-2.83922 5.47851,-10.48633 1.85904,-5.45773 3.65483,-9.92188 3.99219,-9.92188 z M 47.990234,425.66602 c -0.15157,-0.023 -0.255156,0.34221 -0.285156,1.07031 -0.04343,1.05434 0.19317,1.64472 0.525391,1.3125 0.33222,-0.33226 0.368826,-1.19417 0.08008,-1.91602 -0.119693,-0.29915 -0.22937,-0.45302 -0.320313,-0.46679 z m -575.000004,11 c -0.15157,-0.0229 -0.25515,0.34221 -0.28515,1.07031 -0.0434,1.05434 0.19317,1.64472 0.52539,1.3125 0.33222,-0.3323 0.36875,-1.19413 0.0801,-1.91602 -0.1197,-0.29914 -0.22937,-0.45303 -0.32032,-0.46679 z m 575.000004,12 c -0.15157,-0.0229 -0.255156,0.34221 -0.285156,1.07031 -0.04343,1.05434 0.19317,1.64472 0.525391,1.3125 0.33222,-0.3323 0.368826,-1.19413 0.08008,-1.91602 -0.119693,-0.29914 -0.22937,-0.45303 -0.320313,-0.46679 z M -347.97266,571.72656 c 0.003,0.10041 0.008,0.16377 0.0117,0.25586 0.028,-0.0832 0.0583,-0.16672 0.0859,-0.25 -0.0326,-0.002 -0.0651,-0.004 -0.0977,-0.006 z m 105.16211,23.5 c 0.0227,0.3366 0.0478,0.22049 0.0742,0.002 -0.0247,-7.4e-4 -0.0495,-8.4e-4 -0.0742,-0.002 z m 121.80078,63.43946 c -0.0881,-0.0134 -0.15247,0.14268 -0.20312,0.38671 0.0893,-0.11053 0.1799,-0.21986 0.26953,-0.33007 -0.0221,-0.0171 -0.0461,-0.0536 -0.0664,-0.0566 z m -122.36328,59.7832 c -0.45312,0 -0.90625,0.0703 -1.25,0.20898 -0.6875,0.27723 -0.125,0.50391 1.25,0.50391 1.37499,0 1.9375,-0.22649 1.25,-0.50391 -0.34375,-0.13871 -0.79687,-0.20898 -1.25,-0.20898 z m 22,0 c -0.45312,0 -0.90625,0.0703 -1.25,0.20898 -0.6875,0.27723 -0.125,0.50391 1.25,0.50391 1.37499,0 1.9375,-0.22649 1.25,-0.50391 -0.34375,-0.13871 -0.79687,-0.20898 -1.25,-0.20898 z" />
      <rect
         style="fill:#0091db;fill-opacity:1;stroke:#0091db;stroke-width:0.163248;stroke-opacity:1"
         id="rect960"
         width="21.43125"
         height="22.225"
         x="-67.997917"
         y="52.652084" />
    </g>
    <g
       id="g970">
      <path
         id="path865"
         style="fill:#27166c;stroke-width:0.264583"
         d="M 77.254776,0.00211273 C 66.168901,0.08330273 55.3096,2.5050577 45.217454,7.1742837 21.79969,18.008736 5.0790441,39.965007 0.97829358,65.265311 -0.32385858,73.29913 -0.32626628,82.278694 0.97210233,90.400728 5.5106113,118.7919 26.243444,142.93561 53.757509,151.87088 c 5.176981,1.68124 10.642578,2.84985 16.252756,3.47524 3.373569,0.37607 15.414005,0.13196 18.653124,-0.37828 8.949558,-1.40976 15.540961,-3.44645 23.151041,-7.15356 24.59021,-11.97866 40.98028,-35.69723 43.54928,-63.020962 0.39792,-4.232241 0.16624,-14.05161 -0.42013,-17.808215 C 152.25731,49.775637 144.72964,34.879599 132.60696,22.784701 119.57578,9.7833747 102.93494,1.9379947 84.959223,0.32095673 c -2.575767,-0.231709 -5.146162,-0.337582 -7.704439,-0.318844 z m 0.213939,3.51916497 c 7.560834,-0.04709 15.033982,1.080418 22.439458,3.384288 2.921087,0.908764 7.796497,2.80339 8.457367,3.2866223 0.4646,0.339722 0.45046,0.409623 -0.30438,1.520838 -1.41908,2.089039 -3.70975,6.395741 -4.94802,9.30279 -2.40872,5.654913 -3.358465,10.227968 -3.365164,16.203662 -0.0064,5.646857 0.348604,7.60894 3.807004,21.034375 1.96375,7.623247 2.33913,9.913688 2.49442,15.213542 0.23986,8.185644 -1.22696,15.00361 -5.11132,23.755656 l -1.023189,2.305802 H 53.3074 6.7004267 L 6.1505881,97.478332 C 2.6483197,84.419316 2.5991707,71.824857 5.9996936,58.812992 13.275799,30.971488 37.036161,9.3120937 65.51234,4.5620397 c 4.011462,-0.669145 7.995938,-1.016095 11.956375,-1.040762 z m 34.523475,8.4087893 2.02778,1.089855 c 5.35209,2.876947 11.03711,7.225443 16.20987,12.398208 8.65335,8.653351 14.3274,17.827648 18.12964,29.314491 2.5747,7.778332 3.64112,14.545019 3.64112,23.100398 0,7.286858 -0.66338,12.56392 -2.40296,19.116146 l -0.68471,2.579688 h -22.58415 c -12.42131,0 -22.58415,-0.03916 -22.58415,-0.08682 0,-0.04767 0.46682,-1.163815 1.03766,-2.47995 3.23623,-7.461499 4.76901,-14.507973 4.77801,-21.964551 0.008,-6.341446 -0.54741,-9.643436 -3.54242,-21.067965 -2.48084,-9.463212 -2.89668,-12.179066 -2.7218,-17.768424 0.11219,-3.585729 0.27511,-5.034497 0.8046,-7.14375 1.24183,-4.946896 3.29292,-9.65378 6.38617,-14.654403 z M 77.815465,102.96844 c 38.417495,0 69.849995,0.0442 69.849995,0.0987 0,0.32746 -2.0876,5.20886 -3.18275,7.44192 -5.6964,11.61524 -14.93163,22.09488 -25.82891,29.31035 -9.30188,6.1591 -20.205344,10.21269 -31.476118,11.70161 -3.894555,0.5145 -11.743205,0.70745 -15.447634,0.37983 -8.260387,-0.73055 -16.975194,-2.99913 -24.414531,-6.35569 -16.17123,-7.29629 -29.896242,-20.98961 -37.096443,-37.01014 -1.0365509,-2.30633 -2.2531585,-5.2756 -2.2536083,-5.50044 -7.41e-5,-0.0363 31.4324983,-0.0662 69.8499993,-0.0662 z m 33.646005,3.70416 c -0.78852,1e-5 -1.10606,0.17025 -1.69757,0.91157 -0.40018,0.50155 -0.7276,0.97784 -0.7276,1.05834 0,0.0805 0.35044,0.14676 0.77876,0.14676 0.50508,0 0.928,-0.20919 1.20406,-0.59531 l 0.42581,-0.59532 0.49145,0.59532 c 0.3213,0.38903 0.78295,0.59531 1.3317,0.59531 h 0.83974 l -0.83819,-1.05833 c -0.70476,-0.88984 -0.99263,-1.05834 -1.80816,-1.05834 z m -20.152255,3.41013 v 5.70301 5.70301 h 1.051097 1.051615 l 0.07286,-4.03489 0.07338,-4.0349 2.227255,4.0349 2.22777,4.03489 h 1.145667 1.146181 v -5.68854 -5.68854 h -1.051614 -1.051099 l -0.07338,3.9026 -0.07286,3.90261 -2.118218,-3.83646 -2.118217,-3.83646 -1.25522,-0.0806 z m 27.781245,0 v 5.70301 5.70301 h 1.05162 1.0511 l 0.0734,-4.00854 0.0729,-4.00854 2.2102,4.00854 2.20969,4.00854 h 1.16375 1.16324 v -5.68854 -5.68854 h -1.05834 -1.05833 v 3.88968 c 0,2.30075 -0.097,3.78672 -0.2372,3.63802 -0.13029,-0.13825 -1.13145,-1.85901 -2.22518,-3.82353 l -1.98851,-3.57188 -1.2144,-0.0806 z m -61.162671,0.0284 -1.367358,0.002 -1.366842,0.002 -1.918229,5.49165 c -1.054534,3.01898 -1.917424,5.57635 -1.918229,5.68596 0,0 0,5.3e-4 0,5.3e-4 0.0013,0.10715 0.520845,0.19482 1.156002,0.19482 1.146024,0 1.159201,-0.0106 1.492415,-1.20045 l 0.336414,-1.20096 2.124418,0.0765 2.123901,0.076 0.374138,1.12448 c 0.366619,1.10209 0.397933,1.12448 1.570963,1.12448 0.846,0 1.161375,-0.097 1.075386,-0.33073 -0.06691,-0.1819 -0.922806,-2.74174 -1.902209,-5.68854 z m 12.228711,0 -0.07338,3.8778 -0.07286,3.8778 -2.116667,-3.8716 -2.116667,-3.87108 -1.25677,-0.006 -1.256771,-0.006 v 5.68854 5.68751 h 1.051097 1.051615 l 0.07286,-4.0349 0.07338,-4.03489 2.247408,4.03489 2.247408,4.0349 h 1.126029 1.12603 v -5.68854 -5.68855 h -1.051616 z m -40.495202,10e-4 v 0.92604 0.92604 h 1.719792 1.719791 v 4.7625 4.7625 h 1.190625 1.190625 v -4.7625 -4.7625 h 1.5875 1.5875 v -0.92608 -0.92604 h -4.497916 z m 10.847917,0 v 5.68854 5.68854 h 1.190624 1.190625 v -2.51354 -2.51354 h 2.248959 2.248958 v 2.51354 2.51354 h 1.058333 1.058334 v -5.68858 -5.68854 h -1.058334 -1.058333 v 2.11667 2.11666 h -2.248958 -2.248959 v -2.11666 -2.11667 h -1.190625 z m 34.660417,0 v 5.68854 5.68854 h 1.058333 1.058333 v -2.51354 -2.51354 h 2.248958 2.248959 v 2.51354 2.51354 h 1.058333 1.058333 v -5.68858 -5.68854 h -1.058333 -1.058333 v 2.11667 2.11666 h -2.248959 -2.248958 v -2.11666 -2.11667 h -1.058333 z m 27.781248,0 v 5.68854 5.68854 h 1.19063 1.19062 v -5.68858 -5.68854 h -1.19062 z m 4.7625,0 v 5.68854 5.68854 h 4.23333 4.23334 v -0.91777 -0.91777 l -3.10886,-0.0744 -3.10885,-0.0744 -0.0796,-1.52136 -0.0791,-1.52135 h 2.79105 2.79156 v -0.91726 -0.91674 l -2.71198,-0.0755 -2.71198,-0.0749 v -1.19062 -1.19063 l 2.97656,-0.0749 2.97656,-0.0749 v -0.9173 -0.91726 h -4.10104 z m -51.243383,2.53266 0.363285,1.04852 c 0.199762,0.57671 0.531026,1.61458 0.73639,2.3058 l 0.37362,1.25677 h -1.469677 c -1.211159,0 -1.44188,-0.0714 -1.313615,-0.40566 0.08558,-0.22301 0.415385,-1.26036 0.732771,-2.30529 z m 3.906738,11.75484 c -0.966909,0 -1.314303,0.24104 -2.383833,1.65364 -0.313664,0.41432 -0.272507,0.46303 0.392224,0.46303 0.408622,0 1.01867,-0.25927 1.355473,-0.57568 l 0.612365,-0.57516 0.612366,0.57516 c 0.336801,0.31641 0.942104,0.57568 1.345136,0.57568 h 0.732774 l -0.838192,-1.05838 c -0.710284,-0.89681 -0.989428,-1.05833 -1.828313,-1.05833 z m 47.288065,3.15743 c -0.23261,-0.003 -0.5203,0.0176 -0.88986,0.0176 h -1.70739 v 5.17436 5.17487 l 1.12448,-0.0816 c 1.0492,-0.0759 1.12578,-0.13426 1.14618,-0.87488 0.0121,-0.43656 0.0513,-2.2225 0.0873,-3.96875 l 0.0651,-3.175 0.9493,4.0349 0.9493,4.03489 h 1.14153 c 0.96299,0 1.16434,-0.093 1.29036,-0.59531 0.0821,-0.32742 0.54743,-2.20265 1.03405,-4.16719 l 0.88521,-3.57187 0.0289,4.16719 0.0295,4.16718 h 1.05833 1.05833 v -5.15937 -5.15938 h -1.66346 -1.66398 l -0.8847,3.63802 c -0.48656,2.00092 -0.96307,3.78712 -1.05937,3.96979 -0.0963,0.18266 -0.51575,-1.06749 -0.93224,-2.77813 -1.06954,-4.39296 -1.0389,-4.83557 -2.04691,-4.84725 z m -55.778502,0.0176 v 5.15937 5.15938 h 1.058333 1.058333 v -5.15938 -5.15937 h -1.058333 z m 4.7625,0 v 5.15937 5.15938 h 4.101041 4.101043 v -0.92609 -0.92604 h -3.042709 -3.042709 v -1.32291 -1.32292 h 2.778126 2.778125 v -0.92604 -0.92604 H 61.54359 58.765464 v -1.05834 -1.05833 h 2.910418 2.910416 v -0.92604 -0.92604 h -3.96875 z m 10.285159,0 0.08268,0.85989 0.0832,0.8599 1.5875,0.0269 1.5875,0.0269 0.07234,4.2726 0.07287,4.2721 h 1.183905 1.184426 l -5.3e-4,-4.29948 -5.29e-4,-4.29948 1.588016,0.0486 1.588019,0.0486 v -0.90847 -0.90796 h -4.514972 z m 15.408881,0 0.03307,5.15937 0.03307,5.15938 h 1.13533 1.135332 l 0.07338,-3.56051 0.0739,-3.5605 2.127001,3.49436 2.127002,3.49436 1.246436,0.0801 1.246436,0.0811 v -5.17385 -5.17384 h -1.058333 -1.058334 l -0.05374,2.18281 c -0.0887,3.61726 -0.133131,4.44192 -0.247013,4.55579 -0.05984,0.0598 -1.041709,-1.43187 -2.18178,-3.31504 l -2.072741,-3.42356 h -1.279509 z m -33.697686,0.002 -1.124479,0.002 -1.174089,3.84524 c -0.665401,2.17891 -1.255255,3.69706 -1.361157,3.50366 -0.102783,-0.1877 -0.627361,-1.82934 -1.16582,-3.64835 -0.538458,-1.81901 -1.070868,-3.40431 -1.182874,-3.52278 -0.112006,-0.1185 -0.680383,-0.178 -1.262972,-0.1323 l -1.059367,0.0832 1.421102,3.96875 c 0.781373,2.18282 1.608606,4.47477 1.838648,5.09323 v -10e-4 c 0.400547,1.07683 0.464939,1.12442 1.520837,1.12242 l 1.102775,-0.002 1.786971,-4.95836 c 0.982837,-2.72717 1.786466,-5.04765 1.785938,-5.15679 -5.83e-4,-0.10916 -0.50705,-0.19789 -1.125513,-0.19689 z m 48.365005,0.13074 -1.923912,5.02708 c -1.058106,2.76489 -1.924167,5.05683 -1.924431,5.09323 -2.65e-4,0.0363 0.522126,0.0661 1.161169,0.0661 1.10858,0 1.181404,-0.0486 1.585433,-1.05833 l 0.423231,-1.05834 h 2.077391 2.076872 l 0.31678,1.05834 c 0.30834,1.02913 0.34964,1.05833 1.49707,1.05833 0.64901,0 1.18029,-0.10142 1.18029,-0.22531 0,-0.12389 -0.82221,-2.41584 -1.82676,-5.09323 l -1.826249,-4.86792 h -1.4087 z m 1.385962,2.36833 c 0.08804,0.088 1.379762,3.60423 1.379762,3.75584 0,0.0514 -0.644453,0.0935 -1.431954,0.0935 h -1.431954 l 0.701765,-1.96531 c 0.385953,-1.08064 0.738092,-1.92842 0.782381,-1.88412 z m -38.175446,8.8764 c -0.852542,0 -0.926042,0.063 -0.926042,0.79375 0,0.73075 0.0735,0.79375 0.926042,0.79375 0.852541,0 0.926042,-0.063 0.926042,-0.79375 0,-0.73075 -0.0735,-0.79375 -0.926042,-0.79375 z" />
      <path
         style="fill:#27166c;fill-opacity:1;stroke:#27166c;stroke-width:0.264583px;stroke-linecap:butt;stroke-linejoin:miter;stroke-opacity:1"
         d="m 80.108154,17.18603 -1.948754,5.779334 -6.098894,0.04237 4.894273,3.639287 -1.844366,5.813488 4.973582,-3.530129 4.959017,3.550563 -1.820434,-5.821029 4.909206,-3.61912 -6.09867,-0.06746 z"
         id="path966" />
    </g>
  </g>
</svg>
